<svg width="209" height="138" viewBox="0 0 209 138" fill="none" xmlns="http://www.w3.org/2000/svg">
<rect y="131.979" width="24" height="6" rx="3" fill="#B4B6C4"/>
<rect x="46" y="131.979" width="24" height="6" rx="3" fill="#B4B6C4"/>
<rect x="92" y="131.979" width="24" height="6" rx="3" fill="#B4B6C4"/>
<rect x="138" y="131.979" width="24" height="6" rx="3" fill="#B4B6C4"/>
<rect x="184" y="131.979" width="24" height="6" rx="3" fill="#B4B6C4"/>
<line opacity="0.2" x1="0.5" y1="87.4785" x2="208.5" y2="87.4785" stroke="#B4B6C4" stroke-linecap="round"/>
<line opacity="0.2" x1="0.5" y1="59.4785" x2="208.5" y2="59.4785" stroke="#B4B6C4" stroke-linecap="round"/>
<line opacity="0.2" x1="0.5" y1="31.4785" x2="208.5" y2="31.4785" stroke="#B4B6C4" stroke-linecap="round"/>
<line opacity="0.2" x1="0.5" y1="3.47852" x2="208.5" y2="3.47852" stroke="#B4B6C4" stroke-linecap="round"/>
<line opacity="0.2" x1="0.5" y1="115.479" x2="208.5" y2="115.479" stroke="#B4B6C4" stroke-linecap="round"/>
<rect x="1" y="36.9785" width="16" height="78" fill="#456B6B"/>
<rect x="129" y="17.9785" width="16" height="97" fill="#456B6B"/>
<rect x="65" y="59.9785" width="16" height="55" fill="#456B6B"/>
<rect x="193" y="41.9785" width="16" height="73" fill="#456B6B"/>
<rect x="97" y="47.9785" width="16" height="67" fill="#FFDC60"/>
<rect x="33" y="61.9785" width="16" height="53" fill="#FFDC60"/>
<rect x="161" y="28.9785" width="16" height="86" fill="#FFDC60"/>
<path d="M1.5 33.4784C13.6308 2.05959 25.1416 61.9784 40.5 61.9784C53.8552 61.9784 58.4804 38.5271 70.5 38.5271C78.5131 38.5271 84.0196 48.568 93 48.4784C101.98 48.3888 98 31.9784 113.5 46.9784C128.377 61.3756 124.314 1 137.002 1C147.018 1 143.011 26.2455 158.37 26.2455C170.389 26.2455 172.393 7.82312 183.077 7.82312C195.764 7.82312 187.083 38.5271 206.448 38.5271" stroke="#456B6B" stroke-width="2" stroke-linecap="round" stroke-linejoin="round"/>
</svg>
