<svg width="23" height="19" viewBox="0 0 23 19" fill="none" xmlns="http://www.w3.org/2000/svg">
<path d="M22.9999 2.21786C22.1541 2.59265 21.2455 2.84589 20.2903 2.96035C21.2759 2.37061 22.0133 1.44242 22.3648 0.348978C21.4388 0.898997 20.4254 1.28615 19.3685 1.49361C18.6578 0.734774 17.7165 0.231807 16.6906 0.0627949C15.6648 -0.106217 14.6118 0.0681813 13.6953 0.558914C12.7787 1.04965 12.0498 1.82926 11.6217 2.77671C11.1936 3.72416 11.0903 4.78644 11.3278 5.79863C9.45148 5.70442 7.61596 5.21674 5.94034 4.36724C4.26472 3.51774 2.78645 2.3254 1.60147 0.867607C1.19629 1.56654 0.963311 2.3769 0.963311 3.23993C0.962859 4.01685 1.15418 4.78187 1.52031 5.46712C1.88643 6.15237 2.41604 6.73665 3.06213 7.16813C2.31283 7.14429 1.58007 6.94182 0.924819 6.57758V6.63836C0.924744 7.72803 1.30167 8.78416 1.99164 9.62756C2.6816 10.471 3.64212 11.0497 4.7102 11.2655C4.0151 11.4536 3.28634 11.4813 2.57896 11.3465C2.88031 12.2841 3.46731 13.104 4.25778 13.6914C5.04826 14.2788 6.00263 14.6043 6.9873 14.6224C5.31577 15.9346 3.25144 16.6464 1.1264 16.6432C0.749966 16.6433 0.373854 16.6213 0 16.5774C2.15704 17.9643 4.668 18.7003 7.23243 18.6975C15.9134 18.6975 20.659 11.5076 20.659 5.27189C20.659 5.06931 20.654 4.86469 20.6448 4.6621C21.5679 3.99454 22.3647 3.1679 22.9979 2.2209L22.9999 2.21786Z" fill="white"/>
</svg>
