<svg width="36" height="42" viewBox="0 0 36 42" fill="none" xmlns="http://www.w3.org/2000/svg">
<path d="M26.7353 14.0991H8.96441C4.01382 14.0991 0 18.0244 0 22.8658V33.2331C0 38.0745 4.01382 41.9998 8.96441 41.9998H26.7353C31.6859 41.9998 35.6997 38.0745 35.6997 33.2331V22.8658C35.6997 18.0244 31.6859 14.0991 26.7353 14.0991Z" fill="#209FA0"/>
<path fill-rule="evenodd" clip-rule="evenodd" d="M25.5924 23.5587C26.2667 24.3555 26.1673 25.5481 25.3705 26.2223L17.1805 33.1523C16.7773 33.4934 16.2498 33.6503 15.7257 33.5849C15.2016 33.5195 14.7287 33.2378 14.4217 32.808L11.2718 28.398C10.6651 27.5486 10.8618 26.3683 11.7112 25.7616C12.5606 25.1549 13.741 25.3516 14.3477 26.201L16.3051 28.9414L22.9288 23.3367C23.7256 22.6625 24.9182 22.7619 25.5924 23.5587Z" fill="#FFDC60"/>
<path d="M29.4479 11.3314V14.4199C28.7011 14.2112 27.9115 14.1069 27.1007 14.1069H25.7136V11.3314C25.7136 7.09517 22.1927 3.65193 17.861 3.65193C13.5292 3.65193 10.0083 7.07431 9.98698 11.2897V14.1069H8.6213C7.78909 14.1069 6.99956 14.2112 6.2527 14.4408V11.3314C6.27404 5.07096 11.4594 0 17.8183 0C24.2626 0 29.4479 5.07096 29.4479 11.3314Z" fill="#FFDC60"/>
</svg>
