<svg width="358" height="402" viewBox="0 0 358 402" fill="none" xmlns="http://www.w3.org/2000/svg">
<g opacity="0.5">
<rect width="36" height="36" transform="matrix(4.37114e-08 -1 -1 -4.37114e-08 78 136)" fill="#20A2A2"/>
<rect x="98" y="346" width="56" height="56" transform="rotate(90 98 346)" fill="#20A2A2"/>
<rect x="42" y="304" width="42" height="42" transform="rotate(90 42 304)" fill="#20A2A2"/>
<rect x="258" y="184" width="84" height="84" transform="rotate(-180 258 184)" fill="#20A2A2"/>
<rect x="358" y="100" width="100" height="100" transform="rotate(-180 358 100)" fill="#20A2A2"/>
<rect x="174" y="66" width="66" height="66" transform="rotate(-180 174 66)" fill="#20A2A2"/>
<rect width="74" height="74" transform="matrix(4.37114e-08 -1 -1 -4.37114e-08 174 304)" fill="#20A2A2"/>
<rect width="20" height="20" transform="matrix(4.37114e-08 -1 -1 -4.37114e-08 120 204)" fill="#20A2A2"/>
<rect width="30" height="30" transform="matrix(4.37114e-08 -1 -1 -4.37114e-08 231 376)" fill="#20A2A2"/>
<rect width="40" height="40" transform="matrix(4.37114e-08 -1 -1 -4.37114e-08 354 326)" fill="#20A2A2"/>
<rect width="20" height="20" transform="matrix(4.37114e-08 -1 -1 -4.37114e-08 354 250)" fill="#20A2A2"/>
<rect width="56" height="56" transform="matrix(4.37114e-08 -1 -1 -4.37114e-08 314 286)" fill="#20A2A2"/>
</g>
</svg>
