<svg width="18" height="18" viewBox="0 0 18 18" fill="none" xmlns="http://www.w3.org/2000/svg">
<g clip-path="url(#clip0_520_2235)">
<path d="M6.63196 9.48828C5.58796 9.48828 4.74121 10.335 4.74121 11.379V16.1085C4.74121 17.1525 5.58796 17.9993 6.63196 17.9993C7.67596 17.9993 8.52271 17.1525 8.52271 16.1085V11.379C8.52196 10.335 7.67521 9.48828 6.63196 9.48828Z" fill="#E91E63"/>
<path d="M0.0146484 11.3786C0.0146484 12.4233 0.862148 13.2708 1.9069 13.2708C2.95165 13.2708 3.79915 12.4233 3.79915 11.3786V9.48633H1.9084C1.90765 9.48633 1.90765 9.48633 1.9069 9.48633C0.862148 9.48633 0.0146484 10.3338 0.0146484 11.3786Z" fill="#E91E63"/>
<path d="M6.63473 -0.000976562C6.63398 -0.000976562 6.63323 -0.000976562 6.63248 -0.000976562C5.58773 -0.000976562 4.74023 0.846523 4.74023 1.89127C4.74023 2.93602 5.58773 3.78352 6.63248 3.78352H8.52323V1.89127C8.52323 1.89052 8.52323 1.88902 8.52323 1.88752C8.52248 0.844273 7.67723 -0.000976562 6.63473 -0.000976562Z" fill="#36C5F0"/>
<path d="M1.8942 8.52766H6.6327C7.67745 8.52766 8.52495 7.68016 8.52495 6.63541C8.52495 5.59066 7.67745 4.74316 6.6327 4.74316H1.8942C0.849453 4.74316 0.00195312 5.59066 0.00195312 6.63541C0.00195312 7.68016 0.849453 8.52766 1.8942 8.52766Z" fill="#36C5F0"/>
<path d="M16.0926 4.74219C15.0494 4.74219 14.2041 5.58744 14.2041 6.63069V6.63444V8.52669H16.0949C17.1396 8.52669 17.9871 7.67919 17.9871 6.63444C17.9871 5.58969 17.1396 4.74219 16.0949 4.74219C16.0941 4.74219 16.0934 4.74219 16.0926 4.74219Z" fill="#4CAF50"/>
<path d="M9.48047 1.89173V6.63548C9.48047 7.67948 10.3272 8.52623 11.3712 8.52623C12.4152 8.52623 13.262 7.67948 13.262 6.63548V1.89173C13.262 0.847727 12.4152 0.000976562 11.3712 0.000976562C10.3272 0.000976562 9.48047 0.847727 9.48047 1.89173Z" fill="#4CAF50"/>
<path d="M13.261 16.1066C13.261 15.0626 12.4142 14.2158 11.3702 14.2158H9.47949V16.1081C9.48024 17.1513 10.3262 17.9973 11.3702 17.9973C12.4142 17.9973 13.261 17.1506 13.261 16.1066Z" fill="#FF9800"/>
<path d="M16.1093 9.48633H11.3708C10.326 9.48633 9.47852 10.3338 9.47852 11.3786C9.47852 12.4233 10.326 13.2708 11.3708 13.2708H16.1093C17.154 13.2708 18.0015 12.4233 18.0015 11.3786C18.0015 10.3338 17.154 9.48633 16.1093 9.48633Z" fill="#FF9800"/>
</g>
<defs>
<clipPath id="clip0_520_2235">
<rect width="18" height="18" fill="white"/>
</clipPath>
</defs>
</svg>
