<svg width="42" height="34" viewBox="0 0 42 34" fill="none" xmlns="http://www.w3.org/2000/svg">
<path fill-rule="evenodd" clip-rule="evenodd" d="M33.0466 4.29669C36.6319 7.06409 39.6846 11.1185 41.8767 16.189C42.0406 16.5738 42.0406 17.0239 41.8767 17.3904C37.4924 27.5314 29.6866 33.5997 20.9998 33.5997H20.9793C12.3131 33.5997 4.50728 27.5314 0.122926 17.3904C-0.0409753 17.0239 -0.0409753 16.5738 0.122926 16.189C4.50728 6.04592 12.3131 0 20.9793 0H20.9998C25.3432 0 29.4612 1.5069 33.0466 4.29669ZM12.8049 16.7999C12.8049 21.2799 16.4722 24.9249 21 24.9249C25.5073 24.9249 29.1746 21.2799 29.1746 16.7999C29.1746 12.2996 25.5073 8.65449 21 8.65449C16.4722 8.65449 12.8049 12.2996 12.8049 16.7999Z" fill="#209FA0"/>
<path d="M26.1041 16.793C26.1041 19.5828 23.8095 21.8635 21.0027 21.8635C18.1754 21.8635 15.8808 19.5828 15.8808 16.793C15.8808 16.4468 15.9218 16.1231 15.9832 15.7973H16.0857C18.3598 15.7973 20.2037 14.0053 20.2856 11.7632C20.511 11.7246 20.7569 11.7022 21.0027 11.7022C23.8095 11.7022 26.1041 13.9829 26.1041 16.793Z" fill="#FFDC60"/>
</svg>
