<svg width="182" height="120" viewBox="0 0 182 120" fill="none" xmlns="http://www.w3.org/2000/svg">
<rect y="114.782" width="20.8728" height="5.21821" rx="2.60656" fill="#B4B6C4"/>
<rect x="40.0059" y="114.782" width="20.8728" height="5.21821" rx="2.60656" fill="#B4B6C4"/>
<rect x="80.0117" y="114.782" width="20.8728" height="5.21821" rx="2.60656" fill="#B4B6C4"/>
<rect x="120.02" y="114.782" width="20.8728" height="5.21821" rx="2.60656" fill="#B4B6C4"/>
<rect x="160.025" y="114.782" width="20.8728" height="5.21821" rx="2.60656" fill="#B4B6C4"/>
<line opacity="0.2" x1="0.434851" y1="76.0803" x2="181.333" y2="76.0803" stroke="#B4B6C4" stroke-width="0.868852" stroke-linecap="round"/>
<line opacity="0.2" x1="0.434851" y1="51.7284" x2="181.333" y2="51.7284" stroke="#B4B6C4" stroke-width="0.868852" stroke-linecap="round"/>
<line opacity="0.2" x1="0.434851" y1="27.3775" x2="181.333" y2="27.3775" stroke="#B4B6C4" stroke-width="0.868852" stroke-linecap="round"/>
<line opacity="0.2" x1="0.434851" y1="3.02556" x2="181.333" y2="3.02556" stroke="#B4B6C4" stroke-width="0.868852" stroke-linecap="round"/>
<line opacity="0.2" x1="0.434851" y1="100.432" x2="181.333" y2="100.432" stroke="#B4B6C4" stroke-width="0.868852" stroke-linecap="round"/>
<rect x="0.86999" y="32.1603" width="13.9152" height="67.8367" fill="#20A2A2"/>
<rect x="112.192" y="15.6364" width="13.9152" height="84.3611" fill="#20A2A2"/>
<rect x="56.5298" y="52.1632" width="13.9152" height="47.8336" fill="#20A2A2"/>
<rect x="167.853" y="36.5093" width="13.9152" height="63.4882" fill="#20A2A2"/>
<rect x="84.3617" y="41.7273" width="13.9152" height="58.27" fill="#FFDC60"/>
<rect x="28.6999" y="53.9032" width="13.9152" height="46.0942" fill="#FFDC60"/>
<rect x="140.022" y="25.2033" width="13.9152" height="74.7944" fill="#FFDC60"/>
<path d="M1.30401 29.1165C11.8542 1.79151 21.8651 53.903 35.2224 53.903C46.8374 53.903 50.8599 33.5074 61.3134 33.5074C68.2824 33.5074 73.0715 42.2399 80.8817 42.162C88.692 42.0841 85.2302 27.8119 98.7106 40.8575C111.649 53.3788 108.116 0.86999 119.15 0.86999C127.861 0.86999 124.377 22.826 137.734 22.8261C148.187 22.8261 149.93 6.80407 159.222 6.80407C170.256 6.80407 162.706 33.5074 179.548 33.5074" stroke="#20A2A2" stroke-width="1.7377" stroke-linecap="round" stroke-linejoin="round"/>
</svg>
