<svg width="184" height="240" viewBox="0 0 184 240" fill="none" xmlns="http://www.w3.org/2000/svg">
<g opacity="0.2" filter="url(#filter0_f_518_5599)">
<rect x="74.1264" y="74.1264" width="35.2946" height="91.7473" fill="#6D6B7C"/>
</g>
<rect x="74.0217" y="73.693" width="35.0598" height="139.209" fill="white"/>
<g clip-path="url(#clip0_518_5599)">
<path d="M101.063 99.7315V99.7307H101.068V92.3847C101.068 88.791 100.294 86.0226 96.0919 86.0226C94.0718 86.0226 92.7161 87.131 92.1627 88.1817H92.1043V86.3581H88.12V99.7307H92.2687V93.1091C92.2687 91.3657 92.5993 89.6798 94.7588 89.6798C96.8866 89.6798 96.9183 91.6694 96.9183 93.2209V99.7315H101.063Z" fill="#3734A9"/>
<path d="M81.3643 86.3591H85.5181V99.7317H81.3643V86.3591Z" fill="#3734A9"/>
<path d="M83.4394 79.7013C82.1113 79.7013 81.0337 80.779 81.0337 82.1071C81.0337 83.4352 82.1113 84.5354 83.4394 84.5354C84.7675 84.5354 85.8452 83.4352 85.8452 82.1071C85.8444 80.779 84.7667 79.7013 83.4394 79.7013V79.7013Z" fill="#3734A9"/>
</g>
<g clip-path="url(#clip1_518_5599)">
<path d="M81.0337 125.029C81.0337 127.947 82.4895 130.55 84.7659 132.25V135.786L88.1767 133.915C89.0866 134.166 90.0507 134.303 91.0499 134.303C96.5818 134.303 101.067 130.152 101.067 125.03C101.068 119.908 96.5827 115.756 91.0507 115.756C85.5188 115.756 81.0337 119.907 81.0337 125.029V125.029ZM89.9939 122.432L92.6067 125.152L97.5209 122.432L92.0449 128.242L89.4948 125.523L84.5171 128.243L89.9939 122.432Z" fill="#3734A9"/>
</g>
<g clip-path="url(#clip2_518_5599)">
<path d="M99.0093 157.746C99.824 157.168 100.509 156.446 101.068 155.615V155.614C100.322 155.94 99.5294 156.157 98.7013 156.263C99.5527 155.754 100.203 154.956 100.509 153.993C99.7147 154.466 98.8382 154.8 97.9041 154.987C97.1503 154.184 96.076 153.688 94.904 153.688C92.6301 153.688 90.7995 155.533 90.7995 157.795C90.7995 158.12 90.827 158.433 90.8946 158.731C87.4805 158.564 84.4587 156.929 82.4285 154.436C82.0746 155.051 81.8659 155.754 81.8659 156.511C81.8659 157.933 82.598 159.194 83.6907 159.924C83.0304 159.911 82.3835 159.719 81.835 159.418V159.463C81.835 161.459 83.2583 163.116 85.1256 163.498C84.7909 163.59 84.4269 163.634 84.0488 163.634C83.7859 163.634 83.5204 163.619 83.2716 163.563C83.8034 165.189 85.3143 166.385 87.109 166.424C85.7116 167.517 83.9369 168.175 82.0162 168.175C81.6798 168.175 81.3567 168.16 81.0337 168.119C82.8534 169.292 85.0088 169.962 87.3344 169.962C94.5826 169.962 99.3065 163.916 99.0093 157.746Z" fill="#3734A9"/>
</g>
<g clip-path="url(#clip3_518_5599)">
<path d="M89.4789 201.985C89.5323 201.94 89.5866 201.893 89.6367 201.844C86.8478 204.579 82.3 203.303 81.234 199.444V199.438C79.8041 194.189 85.8335 190.201 89.635 193.873C89.7143 193.958 94.9658 199.557 94.6319 199.201H94.6469C95.4307 200.008 96.5643 199.92 97.2388 199.214C97.9642 198.456 97.9901 197.219 97.278 196.449C96.1536 195.155 93.9457 196.122 94.1569 198.041L92.8931 196.754L91.4272 195.352C91.7294 194.752 92.1259 194.227 92.6226 193.773C92.5692 193.819 92.5149 193.867 92.4648 193.914C95.2646 191.169 99.809 192.475 100.867 196.317V196.322C102.301 201.571 96.2646 205.558 92.4665 201.886C92.3889 201.803 87.1408 196.169 87.473 196.526L87.4697 196.513C87.4563 196.513 87.4563 196.501 87.4563 196.501C86.6332 195.652 85.5172 195.78 84.8644 196.475C84.1381 197.233 84.1131 198.469 84.8268 199.228C85.902 200.493 88.1575 199.555 87.9455 197.598C88.0273 197.682 90.8579 200.588 90.6776 200.403C90.2193 201.317 89.7068 201.737 89.4789 201.985Z" fill="#3734A9"/>
</g>
<defs>
<filter id="filter0_f_518_5599" x="0" y="0" width="183.547" height="240" filterUnits="userSpaceOnUse" color-interpolation-filters="sRGB">
<feFlood flood-opacity="0" result="BackgroundImageFix"/>
<feBlend mode="normal" in="SourceGraphic" in2="BackgroundImageFix" result="shape"/>
<feGaussianBlur stdDeviation="37" result="effect1_foregroundBlur_518_5599"/>
</filter>
<clipPath id="clip0_518_5599">
<rect width="20" height="19.9959" fill="white" transform="translate(81.0337 79.7013) scale(1.00171)"/>
</clipPath>
<clipPath id="clip1_518_5599">
<rect width="20" height="19.9959" fill="white" transform="translate(81.0337 115.756) scale(1.00171)"/>
</clipPath>
<clipPath id="clip2_518_5599">
<rect width="20" height="19.9959" fill="white" transform="translate(81.0337 151.81) scale(1.00171)"/>
</clipPath>
<clipPath id="clip3_518_5599">
<rect width="20" height="19.9959" fill="white" transform="translate(81.0337 187.864) scale(1.00171)"/>
</clipPath>
</defs>
</svg>
