<svg width="14" height="13" viewBox="0 0 14 13" fill="none" xmlns="http://www.w3.org/2000/svg">
<path d="M13.1732 4.57763L9.09222 3.98453L7.26792 0.286108C7.2181 0.184847 7.13612 0.102874 7.03486 0.0530473C6.78091 -0.0723231 6.4723 0.0321522 6.34532 0.286108L4.52102 3.98453L0.440057 4.57763C0.327545 4.59371 0.224677 4.64675 0.145919 4.72711C0.0507044 4.82498 -0.00176307 4.95664 4.52393e-05 5.09317C0.00185355 5.22969 0.0577897 5.35992 0.155563 5.45523L3.1082 8.33392L2.41062 12.3988C2.39426 12.4934 2.40473 12.5906 2.44083 12.6795C2.47693 12.7685 2.53722 12.8455 2.61486 12.9019C2.69251 12.9583 2.7844 12.9918 2.88012 12.9986C2.97584 13.0054 3.07156 12.9853 3.15642 12.9405L6.80662 11.0213L10.4568 12.9405C10.5565 12.9935 10.6722 13.0112 10.7831 12.9919C11.0628 12.9437 11.2508 12.6785 11.2026 12.3988L10.505 8.33392L13.4577 5.45523C13.538 5.37647 13.5911 5.2736 13.6072 5.16109C13.6506 4.87981 13.4545 4.61942 13.1732 4.57763Z" fill="white"/>
</svg>
