<svg width="413" height="350" viewBox="0 0 413 350" fill="none" xmlns="http://www.w3.org/2000/svg">
<g opacity="0.1">
<path d="M310.193 216.752H413V113.706H310.193V216.752Z" fill="#20A2A2"/>
<path d="M310.193 216.751H225.111V302.03H310.193V216.751Z" fill="#20A2A2"/>
<path d="M412.999 254.061H365.141V302.03H412.999V254.061Z" fill="#20A2A2"/>
<path d="M310.193 1.77686L225.111 1.77686V87.056L310.193 87.056L310.193 1.77686Z" fill="#20A2A2"/>
<path d="M136.484 0L180.798 3.88578e-06L180.798 44.4162H136.484V0Z" fill="#20A2A2"/>
<path d="M24.8164 350L104.58 350L104.58 270.051L24.8164 270.051L24.8164 350Z" fill="#20A2A2"/>
<path d="M104.58 270.05H157.756L157.756 216.751H104.58L104.58 270.05Z" fill="#20A2A2"/>
<path d="M225.112 149.238H157.756V216.751H225.112V149.238Z" fill="#20A2A2"/>
<path d="M101.035 44.416L136.485 44.416L136.486 79.949L101.035 79.949L101.035 44.416Z" fill="#20A2A2"/>
<path d="M65.584 181.219L101.035 181.219L101.035 145.686H65.584V181.219Z" fill="#20A2A2"/>
<path d="M0 145.685H65.5837V79.9492L5.72938e-06 79.9492L0 145.685Z" fill="#20A2A2"/>
</g>
</svg>
