<svg width="80" height="42" viewBox="0 0 80 42" fill="none" xmlns="http://www.w3.org/2000/svg">
<path d="M5.16454 0.2282H6.80999V8.63559H5.16454V5.15253H2.04179V8.63559H0.384338V0.2282H2.04179V3.56714H5.16454V0.2282Z" fill="black"/>
<path d="M13.4163 7.89094C12.7997 8.49947 12.0471 8.80374 11.1583 8.80374C10.2695 8.80374 9.51683 8.49947 8.90029 7.89094C8.29176 7.27439 7.98749 6.52173 7.98749 5.63295C7.98749 4.74417 8.29176 3.99551 8.90029 3.38698C9.51683 2.77044 10.2695 2.46216 11.1583 2.46216C12.0471 2.46216 12.7997 2.77044 13.4163 3.38698C14.0328 3.99551 14.3411 4.74417 14.3411 5.63295C14.3411 6.52173 14.0328 7.27439 13.4163 7.89094ZM9.99325 6.822C10.3055 7.13427 10.6939 7.29041 11.1583 7.29041C11.6227 7.29041 12.011 7.13427 12.3233 6.822C12.6356 6.50972 12.7917 6.11337 12.7917 5.63295C12.7917 5.15253 12.6356 4.75618 12.3233 4.44391C12.011 4.13163 11.6227 3.97549 11.1583 3.97549C10.6939 3.97549 10.3055 4.13163 9.99325 4.44391C9.68898 4.75618 9.53685 5.15253 9.53685 5.63295C9.53685 6.11337 9.68898 6.50972 9.99325 6.822Z" fill="black"/>
<path d="M21.9584 2.63031H23.6038L21.6942 8.63559H20.2169L19.1119 4.99639L18.0069 8.63559H16.5296L14.6199 2.63031H16.2654L17.2863 6.31755L18.3792 2.63031H19.8445L20.9375 6.32956L21.9584 2.63031Z" fill="black"/>
<path d="M30.8766 4.11962H29.5194V6.61782C29.5194 6.826 29.5715 6.97813 29.6756 7.07422C29.7796 7.1703 29.9318 7.22635 30.132 7.24237C30.3321 7.25037 30.5803 7.24637 30.8766 7.23036V8.63559C29.8117 8.7557 29.059 8.65561 28.6186 8.33533C28.1862 8.01504 27.9701 7.44254 27.9701 6.61782V4.11962H26.9251V2.63031H27.9701V1.41725L29.5194 0.948834V2.63031H30.8766V4.11962Z" fill="black"/>
<path d="M36.8978 7.89094C36.2813 8.49947 35.5286 8.80374 34.6399 8.80374C33.7511 8.80374 32.9984 8.49947 32.3819 7.89094C31.7733 7.27439 31.4691 6.52173 31.4691 5.63295C31.4691 4.74417 31.7733 3.99551 32.3819 3.38698C32.9984 2.77044 33.7511 2.46216 34.6399 2.46216C35.5286 2.46216 36.2813 2.77044 36.8978 3.38698C37.5144 3.99551 37.8226 4.74417 37.8226 5.63295C37.8226 6.52173 37.5144 7.27439 36.8978 7.89094ZM33.4748 6.822C33.7871 7.13427 34.1754 7.29041 34.6399 7.29041C35.1043 7.29041 35.4926 7.13427 35.8049 6.822C36.1172 6.50972 36.2733 6.11337 36.2733 5.63295C36.2733 5.15253 36.1172 4.75618 35.8049 4.44391C35.4926 4.13163 35.1043 3.97549 34.6399 3.97549C34.1754 3.97549 33.7871 4.13163 33.4748 4.44391C33.1706 4.75618 33.0184 5.15253 33.0184 5.63295C33.0184 6.11337 33.1706 6.50972 33.4748 6.822Z" fill="black"/>
<path d="M46.5153 2.63031H48.0286V8.34734C48.0286 9.27615 47.7204 9.98478 47.1038 10.4732C46.4953 10.9616 45.7586 11.2058 44.8939 11.2058C44.2453 11.2058 43.6728 11.0817 43.1764 10.8335C42.6879 10.5853 42.3116 10.221 42.0474 9.74056L43.3685 8.9839C43.6728 9.54439 44.1973 9.82464 44.9419 9.82464C45.4303 9.82464 45.8147 9.69652 46.0949 9.4403C46.3752 9.18407 46.5153 8.81975 46.5153 8.34734V7.69877C46.0589 8.3073 45.4183 8.61157 44.5936 8.61157C43.7449 8.61157 43.0322 8.31531 42.4557 7.72279C41.8872 7.12226 41.603 6.39362 41.603 5.53687C41.603 4.68812 41.8912 3.96348 42.4677 3.36296C43.0442 2.76243 43.7529 2.46216 44.5936 2.46216C45.4183 2.46216 46.0589 2.76643 46.5153 3.37497V2.63031ZM43.6207 6.72591C43.941 7.03018 44.3454 7.18231 44.8338 7.18231C45.3222 7.18231 45.7226 7.03018 46.0349 6.72591C46.3551 6.41364 46.5153 6.01729 46.5153 5.53687C46.5153 5.06445 46.3551 4.67611 46.0349 4.37184C45.7226 4.05957 45.3222 3.90343 44.8338 3.90343C44.3454 3.90343 43.941 4.05957 43.6207 4.37184C43.3085 4.67611 43.1523 5.06445 43.1523 5.53687C43.1523 6.01729 43.3085 6.41364 43.6207 6.72591Z" fill="black"/>
<path d="M53.9976 2.63031H55.5469V8.63559H53.9976V7.92697C53.5332 8.51148 52.8806 8.80374 52.0399 8.80374C51.2392 8.80374 50.5506 8.49947 49.974 7.89094C49.4055 7.27439 49.1213 6.52173 49.1213 5.63295C49.1213 4.74417 49.4055 3.99551 49.974 3.38698C50.5506 2.77044 51.2392 2.46216 52.0399 2.46216C52.8806 2.46216 53.5332 2.75442 53.9976 3.33894V2.63031ZM51.1391 6.85803C51.4513 7.1703 51.8477 7.32644 52.3281 7.32644C52.8085 7.32644 53.2049 7.1703 53.5172 6.85803C53.8374 6.53775 53.9976 6.12939 53.9976 5.63295C53.9976 5.13651 53.8374 4.73216 53.5172 4.41989C53.2049 4.0996 52.8085 3.93946 52.3281 3.93946C51.8477 3.93946 51.4513 4.0996 51.1391 4.41989C50.8268 4.73216 50.6707 5.13651 50.6707 5.63295C50.6707 6.12939 50.8268 6.53775 51.1391 6.85803Z" fill="black"/>
<path d="M57.7206 1.90968C57.4644 1.90968 57.2402 1.8176 57.048 1.63344C56.8638 1.44127 56.7717 1.21707 56.7717 0.960844C56.7717 0.70462 56.8638 0.480423 57.048 0.288253C57.2402 0.0960844 57.4644 0 57.7206 0C57.9848 0 58.209 0.0960844 58.3932 0.288253C58.5853 0.480423 58.6814 0.70462 58.6814 0.960844C58.6814 1.21707 58.5853 1.44127 58.3932 1.63344C58.209 1.8176 57.9848 1.90968 57.7206 1.90968ZM56.9519 8.63559V2.63031H58.5013V8.63559H56.9519Z" fill="black"/>
<path d="M63.2583 2.46216C63.9149 2.46216 64.4553 2.68236 64.8797 3.12274C65.3121 3.56313 65.5283 4.17167 65.5283 4.94835V8.63559H63.9789V5.14052C63.9789 4.74017 63.8708 4.4359 63.6546 4.22772C63.4384 4.01153 63.1502 3.90343 62.7899 3.90343C62.3895 3.90343 62.0692 4.02754 61.829 4.27576C61.5888 4.52398 61.4687 4.8963 61.4687 5.39274V8.63559H59.9194V2.63031H61.4687V3.3029C61.845 2.74241 62.4416 2.46216 63.2583 2.46216Z" fill="black"/>
<path d="M6.95411 17.4754C7.64272 17.4754 8.1912 17.6996 8.59956 18.148C9.01592 18.5963 9.22411 19.1969 9.22411 19.9495V23.6488H7.67475V20.0576C7.67475 19.6973 7.58667 19.4171 7.41051 19.2169C7.23436 19.0167 6.98614 18.9166 6.66586 18.9166C6.31355 18.9166 6.03731 19.0327 5.83713 19.2649C5.64496 19.4971 5.54888 19.8334 5.54888 20.2738V23.6488H3.99952V20.0576C3.99952 19.6973 3.91144 19.4171 3.73528 19.2169C3.55913 19.0167 3.31091 18.9166 2.99063 18.9166C2.64633 18.9166 2.37008 19.0327 2.1619 19.2649C1.96172 19.4971 1.86164 19.8334 1.86164 20.2738V23.6488H0.312274V17.6435H1.86164V18.2801C2.22195 17.7436 2.77844 17.4754 3.5311 17.4754C4.26775 17.4754 4.81223 17.7636 5.16454 18.3401C5.56489 17.7636 6.16142 17.4754 6.95411 17.4754Z" fill="black"/>
<path d="M15.6565 22.9041C15.04 23.5127 14.2873 23.8169 13.3985 23.8169C12.5097 23.8169 11.7571 23.5127 11.1405 22.9041C10.532 22.2876 10.2277 21.5349 10.2277 20.6461C10.2277 19.7574 10.532 19.0087 11.1405 18.4002C11.7571 17.7836 12.5097 17.4754 13.3985 17.4754C14.2873 17.4754 15.04 17.7836 15.6565 18.4002C16.2731 19.0087 16.5813 19.7574 16.5813 20.6461C16.5813 21.5349 16.2731 22.2876 15.6565 22.9041ZM12.2335 21.8352C12.5458 22.1475 12.9341 22.3036 13.3985 22.3036C13.8629 22.3036 14.2513 22.1475 14.5636 21.8352C14.8758 21.5229 15.032 21.1266 15.032 20.6461C15.032 20.1657 14.8758 19.7694 14.5636 19.4571C14.2513 19.1448 13.8629 18.9887 13.3985 18.9887C12.9341 18.9887 12.5458 19.1448 12.2335 19.4571C11.9292 19.7694 11.7771 20.1657 11.7771 20.6461C11.7771 21.1266 11.9292 21.5229 12.2335 21.8352Z" fill="black"/>
<path d="M19.2206 18.6764C19.3648 18.2921 19.601 18.0038 19.9293 17.8117C20.2656 17.6195 20.6379 17.5234 21.0462 17.5234V19.2529C20.5738 19.1969 20.1495 19.293 19.7731 19.5412C19.4048 19.7894 19.2206 20.2018 19.2206 20.7783V23.6488H17.6713V17.6435H19.2206V18.6764Z" fill="black"/>
<path d="M23.0387 21.2827C23.2469 22.0354 23.8114 22.4117 24.7322 22.4117C25.3247 22.4117 25.7731 22.2115 26.0774 21.8112L27.3265 22.5318C26.7339 23.3886 25.8612 23.8169 24.7082 23.8169C23.7153 23.8169 22.9186 23.5167 22.3181 22.9161C21.7175 22.3156 21.4173 21.5589 21.4173 20.6461C21.4173 19.7414 21.7135 18.9887 22.306 18.3882C22.8986 17.7796 23.6592 17.4754 24.588 17.4754C25.4688 17.4754 26.1935 17.7796 26.762 18.3882C27.3385 18.9967 27.6267 19.7494 27.6267 20.6461C27.6267 20.8463 27.6067 21.0585 27.5667 21.2827H23.0387ZM23.0147 20.0817H26.0774C25.9893 19.6733 25.8051 19.369 25.5249 19.1688C25.2526 18.9687 24.9404 18.8686 24.588 18.8686C24.1717 18.8686 23.8274 18.9767 23.5551 19.1929C23.2829 19.4011 23.1027 19.6973 23.0147 20.0817Z" fill="black"/>
<path d="M34.9418 16.5626C34.0931 16.4985 33.6687 16.8388 33.6687 17.5835V17.6435H34.9418V19.1328H33.6687V23.6488H32.1193V19.1328H31.2546V17.6435H32.1193V17.5835C32.1193 16.7347 32.3555 16.0901 32.8279 15.6498C33.3004 15.2094 34.005 15.0172 34.9418 15.0732V16.5626Z" fill="black"/>
<path d="M40.5456 22.9041C39.929 23.5127 39.1764 23.8169 38.2876 23.8169C37.3988 23.8169 36.6461 23.5127 36.0296 22.9041C35.4211 22.2876 35.1168 21.5349 35.1168 20.6461C35.1168 19.7574 35.4211 19.0087 36.0296 18.4002C36.6461 17.7836 37.3988 17.4754 38.2876 17.4754C39.1764 17.4754 39.929 17.7836 40.5456 18.4002C41.1621 19.0087 41.4704 19.7574 41.4704 20.6461C41.4704 21.5349 41.1621 22.2876 40.5456 22.9041ZM37.1226 21.8352C37.4348 22.1475 37.8232 22.3036 38.2876 22.3036C38.752 22.3036 39.1403 22.1475 39.4526 21.8352C39.7649 21.5229 39.921 21.1266 39.921 20.6461C39.921 20.1657 39.7649 19.7694 39.4526 19.4571C39.1403 19.1448 38.752 18.9887 38.2876 18.9887C37.8232 18.9887 37.4348 19.1448 37.1226 19.4571C36.8183 19.7694 36.6662 20.1657 36.6662 20.6461C36.6662 21.1266 36.8183 21.5229 37.1226 21.8352Z" fill="black"/>
<path d="M42.5603 23.6488V14.8811H44.1097V23.6488H42.5603Z" fill="black"/>
<path d="M45.5278 23.6488V14.8811H47.0772V23.6488H45.5278Z" fill="black"/>
<path d="M53.6117 22.9041C52.9952 23.5127 52.2425 23.8169 51.3538 23.8169C50.465 23.8169 49.7123 23.5127 49.0958 22.9041C48.4872 22.2876 48.183 21.5349 48.183 20.6461C48.183 19.7574 48.4872 19.0087 49.0958 18.4002C49.7123 17.7836 50.465 17.4754 51.3538 17.4754C52.2425 17.4754 52.9952 17.7836 53.6117 18.4002C54.2283 19.0087 54.5366 19.7574 54.5366 20.6461C54.5366 21.5349 54.2283 22.2876 53.6117 22.9041ZM50.1887 21.8352C50.501 22.1475 50.8894 22.3036 51.3538 22.3036C51.8182 22.3036 52.2065 22.1475 52.5188 21.8352C52.8311 21.5229 52.9872 21.1266 52.9872 20.6461C52.9872 20.1657 52.8311 19.7694 52.5188 19.4571C52.2065 19.1448 51.8182 18.9887 51.3538 18.9887C50.8894 18.9887 50.501 19.1448 50.1887 19.4571C49.8845 19.7694 49.7323 20.1657 49.7323 20.6461C49.7323 21.1266 49.8845 21.5229 50.1887 21.8352Z" fill="black"/>
<path d="M62.1539 17.6435H63.7993L61.8896 23.6488H60.4123L59.3074 20.0096L58.2024 23.6488H56.7251L54.8154 17.6435H56.4609L57.4818 21.3307L58.5747 17.6435H60.04L61.133 21.3428L62.1539 17.6435Z" fill="black"/>
<path d="M65.709 21.2827C65.9172 22.0354 66.4817 22.4117 67.4025 22.4117C67.995 22.4117 68.4434 22.2115 68.7477 21.8112L69.9968 22.5318C69.4042 23.3886 68.5315 23.8169 67.3785 23.8169C66.3856 23.8169 65.5889 23.5167 64.9884 22.9161C64.3878 22.3156 64.0876 21.5589 64.0876 20.6461C64.0876 19.7414 64.3838 18.9887 64.9764 18.3882C65.5689 17.7796 66.3295 17.4754 67.2584 17.4754C68.1391 17.4754 68.8638 17.7796 69.4323 18.3882C70.0088 18.9967 70.297 19.7494 70.297 20.6461C70.297 20.8463 70.277 21.0585 70.237 21.2827H65.709ZM65.685 20.0817H68.7477C68.6596 19.6733 68.4754 19.369 68.1952 19.1688C67.9229 18.9687 67.6107 18.8686 67.2584 18.8686C66.842 18.8686 66.4977 18.9767 66.2255 19.1929C65.9532 19.4011 65.7731 19.6973 65.685 20.0817Z" fill="black"/>
<path d="M72.928 18.6764C73.0721 18.2921 73.3083 18.0038 73.6366 17.8117C73.9729 17.6195 74.3452 17.5234 74.7536 17.5234V19.2529C74.2812 19.1969 73.8568 19.293 73.4805 19.5412C73.1122 19.7894 72.928 20.2018 72.928 20.7783V23.6488H71.3786V17.6435H72.928V18.6764Z" fill="black"/>
<path d="M76.9013 19.349C76.9013 19.5091 77.0054 19.6413 77.2136 19.7454C77.4298 19.8414 77.69 19.9295 77.9943 20.0096C78.2986 20.0817 78.6028 20.1777 78.9071 20.2978C79.2114 20.4099 79.4676 20.6021 79.6758 20.8743C79.892 21.1466 80.0001 21.4869 80.0001 21.8952C80.0001 22.5118 79.7679 22.9882 79.3034 23.3245C78.847 23.6528 78.2746 23.8169 77.5859 23.8169C76.3529 23.8169 75.5121 23.3405 75.0637 22.3877L76.4089 21.631C76.5851 22.1515 76.9774 22.4117 77.5859 22.4117C78.1384 22.4117 78.4147 22.2395 78.4147 21.8952C78.4147 21.7351 78.3066 21.607 78.0904 21.5109C77.8822 21.4068 77.626 21.3147 77.3217 21.2347C77.0174 21.1546 76.7132 21.0545 76.4089 20.9344C76.1046 20.8143 75.8444 20.6261 75.6282 20.3699C75.42 20.1057 75.3159 19.7774 75.3159 19.385C75.3159 18.7925 75.5321 18.3281 75.9645 17.9918C76.4049 17.6475 76.9494 17.4754 77.5979 17.4754C78.0864 17.4754 78.5308 17.5875 78.9311 17.8117C79.3315 18.0278 79.6478 18.3401 79.88 18.7485L78.5588 19.4691C78.3666 19.0608 78.0463 18.8566 77.5979 18.8566C77.3978 18.8566 77.2296 18.9006 77.0935 18.9887C76.9654 19.0768 76.9013 19.1969 76.9013 19.349Z" fill="black"/>
<path d="M5.42877 37.9173C4.81223 38.5259 4.05957 38.8301 3.17079 38.8301C2.28201 38.8301 1.52934 38.5259 0.912802 37.9173C0.304267 37.3008 0 36.5481 0 35.6593C0 34.7706 0.304267 34.0219 0.912802 33.4134C1.52934 32.7968 2.28201 32.4886 3.17079 32.4886C4.05957 32.4886 4.81223 32.7968 5.42877 33.4134C6.04531 34.0219 6.35358 34.7706 6.35358 35.6593C6.35358 36.5481 6.04531 37.3008 5.42877 37.9173ZM2.00576 36.8484C2.31804 37.1607 2.70638 37.3168 3.17079 37.3168C3.6352 37.3168 4.02354 37.1607 4.33581 36.8484C4.64809 36.5361 4.80422 36.1398 4.80422 35.6593C4.80422 35.1789 4.64809 34.7826 4.33581 34.4703C4.02354 34.158 3.6352 34.0019 3.17079 34.0019C2.70638 34.0019 2.31804 34.158 2.00576 34.4703C1.7015 34.7826 1.54936 35.1789 1.54936 35.6593C1.54936 36.1398 1.7015 36.5361 2.00576 36.8484Z" fill="black"/>
<path d="M10.7825 32.4886C11.4391 32.4886 11.9795 32.7087 12.4039 33.1491C12.8363 33.5895 13.0525 34.1981 13.0525 34.9747V38.662H11.5031V35.1669C11.5031 34.7666 11.395 34.4623 11.1788 34.2541C10.9626 34.0379 10.6744 33.9298 10.3141 33.9298C9.91371 33.9298 9.59343 34.0539 9.35322 34.3021C9.11301 34.5504 8.9929 34.9227 8.9929 35.4191V38.662H7.44354V32.6567H8.9929V33.3293C9.36923 32.7688 9.96576 32.4886 10.7825 32.4886Z" fill="black"/>
<path d="M21.2935 32.6567H22.951L20.765 38.662C20.4528 39.5267 20.0364 40.1513 19.5159 40.5356C19.0035 40.928 18.3629 41.1041 17.5942 41.0641V39.6228C18.0106 39.6308 18.3389 39.5428 18.5791 39.3586C18.8273 39.1744 19.0235 38.8782 19.1676 38.4698L16.7055 32.6567H18.399L19.9603 36.6922L21.2935 32.6567Z" fill="black"/>
<path d="M28.5702 37.9173C27.9537 38.5259 27.201 38.8301 26.3122 38.8301C25.4234 38.8301 24.6708 38.5259 24.0542 37.9173C23.4457 37.3008 23.1414 36.5481 23.1414 35.6593C23.1414 34.7706 23.4457 34.0219 24.0542 33.4134C24.6708 32.7968 25.4234 32.4886 26.3122 32.4886C27.201 32.4886 27.9537 32.7968 28.5702 33.4134C29.1867 34.0219 29.495 34.7706 29.495 35.6593C29.495 36.5481 29.1867 37.3008 28.5702 37.9173ZM25.1472 36.8484C25.4595 37.1607 25.8478 37.3168 26.3122 37.3168C26.7766 37.3168 27.165 37.1607 27.4772 36.8484C27.7895 36.5361 27.9457 36.1398 27.9457 35.6593C27.9457 35.1789 27.7895 34.7826 27.4772 34.4703C27.165 34.158 26.7766 34.0019 26.3122 34.0019C25.8478 34.0019 25.4595 34.158 25.1472 34.4703C24.8429 34.7826 24.6908 35.1789 24.6908 35.6593C24.6908 36.1398 24.8429 36.5361 25.1472 36.8484Z" fill="black"/>
<path d="M34.5485 32.6567H36.0978V38.662H34.5485V37.9894C34.1721 38.5499 33.5756 38.8301 32.7589 38.8301C32.1023 38.8301 31.5578 38.6099 31.1254 38.1695C30.7011 37.7292 30.4889 37.1206 30.4889 36.3439V32.6567H32.0383V36.1518C32.0383 36.5521 32.1463 36.8604 32.3625 37.0766C32.5787 37.2848 32.867 37.3889 33.2273 37.3889C33.6277 37.3889 33.9479 37.2648 34.1881 37.0165C34.4284 36.7683 34.5485 36.396 34.5485 35.8996V32.6567Z" fill="black"/>
<path d="M40.9519 34.146H39.5947V36.6442C39.5947 36.8524 39.6467 37.0045 39.7508 37.1006C39.8549 37.1967 40.007 37.2527 40.2072 37.2688C40.4074 37.2768 40.6556 37.2728 40.9519 37.2567V38.662C39.8869 38.7821 39.1343 38.682 38.6939 38.3617C38.2615 38.0414 38.0453 37.4689 38.0453 36.6442V34.146H37.0004V32.6567H38.0453V31.4436L39.5947 30.9752V32.6567H40.9519V34.146Z" fill="black"/>
<path d="M46.1016 32.6567H47.6509V38.662H46.1016V37.9894C45.7253 38.5499 45.1287 38.8301 44.312 38.8301C43.6554 38.8301 43.111 38.6099 42.6786 38.1695C42.2542 37.7292 42.042 37.1206 42.042 36.3439V32.6567H43.5914V36.1518C43.5914 36.5521 43.6995 36.8604 43.9157 37.0766C44.1319 37.2848 44.4201 37.3889 44.7804 37.3889C45.1808 37.3889 45.5011 37.2648 45.7413 37.0165C45.9815 36.7683 46.1016 36.396 46.1016 35.8996V32.6567Z" fill="black"/>
<path d="M52.565 32.4886C53.3738 32.4886 54.0624 32.7968 54.6309 33.4134C55.2074 34.0219 55.4956 34.7706 55.4956 35.6593C55.4956 36.5481 55.2074 37.3008 54.6309 37.9173C54.0624 38.5259 53.3738 38.8301 52.565 38.8301C51.7243 38.8301 51.0757 38.5379 50.6193 37.9534V38.662H49.07V30.2546H50.6193V33.3653C51.0757 32.7808 51.7243 32.4886 52.565 32.4886ZM51.0877 36.8844C51.4 37.1967 51.7964 37.3528 52.2768 37.3528C52.7572 37.3528 53.1536 37.1967 53.4658 36.8844C53.7861 36.5641 53.9463 36.1558 53.9463 35.6593C53.9463 35.1629 53.7861 34.7586 53.4658 34.4463C53.1536 34.126 52.7572 33.9659 52.2768 33.9659C51.7964 33.9659 51.4 34.126 51.0877 34.4463C50.7755 34.7586 50.6193 35.1629 50.6193 35.6593C50.6193 36.1558 50.7755 36.5641 51.0877 36.8844Z" fill="black"/>
<path d="M57.8974 36.2959C58.1056 37.0486 58.6701 37.4249 59.5909 37.4249C60.1835 37.4249 60.6319 37.2247 60.9361 36.8244L62.1852 37.545C61.5927 38.4018 60.7199 38.8301 59.5669 38.8301C58.574 38.8301 57.7773 38.5299 57.1768 37.9293C56.5763 37.3288 56.276 36.5721 56.276 35.6593C56.276 34.7545 56.5723 34.0019 57.1648 33.4014C57.7573 32.7928 58.518 32.4886 59.4468 32.4886C60.3276 32.4886 61.0522 32.7928 61.6207 33.4014C62.1972 34.0099 62.4855 34.7626 62.4855 35.6593C62.4855 35.8595 62.4655 36.0717 62.4254 36.2959H57.8974ZM57.8734 35.0948H60.9361C60.848 34.6865 60.6639 34.3822 60.3836 34.182C60.1114 33.9819 59.7991 33.8818 59.4468 33.8818C59.0304 33.8818 58.6861 33.9899 58.4139 34.2061C58.1417 34.4142 57.9615 34.7105 57.8734 35.0948Z" fill="black"/>
<path d="M64.4029 35.8395C64.4029 35.4872 64.507 35.1509 64.7152 34.8306C64.9314 34.5103 65.1636 34.2541 65.4118 34.0619C65.6601 33.8618 65.8883 33.6296 66.0964 33.3653C66.3126 33.1011 66.4207 32.8369 66.4207 32.5726C66.4207 32.2924 66.3246 32.0762 66.1325 31.9241C65.9403 31.7719 65.6721 31.6959 65.3278 31.6959C64.6552 31.6959 64.1788 32.0522 63.8985 32.7648L62.4813 31.9481C62.7215 31.3556 63.1018 30.8992 63.6223 30.5789C64.1507 30.2506 64.7392 30.0864 65.3878 30.0864C66.1165 30.0864 66.745 30.2986 67.2735 30.723C67.8099 31.1394 68.0782 31.7159 68.0782 32.4525C68.0782 32.7888 68.0061 33.1011 67.862 33.3893C67.7259 33.6776 67.5577 33.9258 67.3575 34.134C67.1654 34.3342 66.9692 34.5263 66.769 34.7105C66.5769 34.8867 66.4087 35.0708 66.2646 35.263C66.1285 35.4552 66.0604 35.6473 66.0604 35.8395H64.4029ZM65.9523 38.5179C65.7521 38.718 65.5119 38.8181 65.2317 38.8181C64.9514 38.8181 64.7112 38.718 64.511 38.5179C64.3109 38.3177 64.2108 38.0775 64.2108 37.7972C64.2108 37.517 64.3109 37.2768 64.511 37.0766C64.7112 36.8764 64.9514 36.7763 65.2317 36.7763C65.5119 36.7763 65.7521 36.8764 65.9523 37.0766C66.1525 37.2768 66.2526 37.517 66.2526 37.7972C66.2526 38.0775 66.1525 38.3177 65.9523 38.5179Z" fill="black"/>
</svg>
