<svg width="1112" height="320" viewBox="0 0 1112 320" fill="none" xmlns="http://www.w3.org/2000/svg">
<rect width="1112" height="320" rx="6" fill="#209FA0"/>
<g opacity="0.2" clip-path="url(#clip0_520_2003)">
<rect x="951.565" y="112.384" width="93.6527" height="93.6527" transform="rotate(90 951.565 112.384)" fill="#456B6B"/>
<rect x="857.913" width="112.383" height="112.383" transform="rotate(90 857.913 0)" fill="#456B6B"/>
<rect x="692.851" width="53.8503" height="53.8503" transform="rotate(90 692.851 0)" fill="#456B6B"/>
<rect x="820.452" y="206.035" width="74.9222" height="74.9222" transform="rotate(90 820.452 206.035)" fill="#456B6B"/>
<rect width="84.2874" height="84.2874" transform="matrix(-1 0 0 1 1085.02 196.67)" fill="#456B6B"/>
<rect width="23.4132" height="23.4132" transform="matrix(-1 0 0 1 974.979 257.545)" fill="#456B6B"/>
<rect width="49.1677" height="49.1677" transform="matrix(-1 0 0 1 1113.12 0)" fill="#456B6B"/>
<rect width="23.4132" height="23.4132" transform="matrix(-1 0 0 1 1024.15 0)" fill="#456B6B"/>
<rect width="63.2156" height="63.2156" transform="matrix(-1 0 0 1 1063.95 49.168)" fill="#456B6B"/>
</g>
<defs>
<clipPath id="clip0_520_2003">
<rect width="493" height="281" fill="white" transform="translate(619)"/>
</clipPath>
</defs>
</svg>
