<svg width="20" height="23" viewBox="0 0 20 23" fill="none" xmlns="http://www.w3.org/2000/svg">
<path fill-rule="evenodd" clip-rule="evenodd" d="M1.83354 0V0.0210747C0.925197 0.0210747 0.189674 0.758706 0.189674 1.66494C0.189674 2.57117 0.925197 3.3088 1.83354 3.3088H8.1329C9.04124 3.3088 9.77887 2.57117 9.77887 1.64176C9.77887 0.737631 9.04124 0 8.1329 0H1.83354ZM18.3565 12.8348H1.83354C0.925196 12.8348 0.189674 12.0971 0.189674 11.1909C0.189674 10.2847 0.925196 9.54494 1.83354 9.54494H18.3565C19.2627 9.54494 20.0003 10.2847 20.0003 11.1909C20.0003 12.0971 19.2627 12.8348 18.3565 12.8348ZM18.3565 22.4661H1.83354C1.20128 22.5504 0.590104 22.2343 0.252902 21.7074C-0.0843006 21.1595 -0.0843006 20.464 0.252902 19.9371C0.590104 19.3891 1.20128 19.0941 1.83354 19.1573H18.3565C19.1974 19.2416 19.8317 19.9582 19.8317 20.8223C19.8317 21.6632 19.1974 22.3818 18.3565 22.4661Z" fill="#FFDC60"/>
</svg>
