<svg width="153" height="53" viewBox="0 0 153 53" fill="none" xmlns="http://www.w3.org/2000/svg">
<rect opacity="0.2" x="102.096" width="50.9046" height="21.2059" rx="3" fill="#20A2A2"/>
<path d="M4.876 1.82333H1.62032V3.98642H4.76564V5.20041H1.62032V8.33469H0.351152V0.609343H4.876V1.82333Z" fill="black"/>
<path d="M8.7009 8.47816C7.89158 8.47816 7.20366 8.19857 6.63713 7.63941C6.07061 7.08024 5.78735 6.39232 5.78735 5.57564C5.78735 4.75896 6.07061 4.07103 6.63713 3.51187C7.20366 2.9527 7.89158 2.67311 8.7009 2.67311C9.51758 2.67311 10.2055 2.9527 10.7647 3.51187C11.3312 4.07103 11.6145 4.75896 11.6145 5.57564C11.6145 6.39232 11.3312 7.08024 10.7647 7.63941C10.2055 8.19857 9.51758 8.47816 8.7009 8.47816ZM7.47589 6.82273C7.80697 7.15381 8.21531 7.31936 8.7009 7.31936C9.1865 7.31936 9.59484 7.15381 9.92592 6.82273C10.257 6.49164 10.4226 6.07594 10.4226 5.57564C10.4226 5.07533 10.257 4.65963 9.92592 4.32854C9.59484 3.99746 9.1865 3.83192 8.7009 3.83192C8.21531 3.83192 7.80697 3.99746 7.47589 4.32854C7.1448 4.65963 6.97926 5.07533 6.97926 5.57564C6.97926 6.07594 7.1448 6.49164 7.47589 6.82273Z" fill="black"/>
<path d="M12.8026 8.33469V0.278257H13.9945V8.33469H12.8026Z" fill="black"/>
<path d="M15.4888 8.33469V0.278257H16.6807V8.33469H15.4888Z" fill="black"/>
<path d="M20.7795 8.47816C19.9702 8.47816 19.2823 8.19857 18.7157 7.63941C18.1492 7.08024 17.866 6.39232 17.866 5.57564C17.866 4.75896 18.1492 4.07103 18.7157 3.51187C19.2823 2.9527 19.9702 2.67311 20.7795 2.67311C21.5962 2.67311 22.2841 2.9527 22.8433 3.51187C23.4098 4.07103 23.6931 4.75896 23.6931 5.57564C23.6931 6.39232 23.4098 7.08024 22.8433 7.63941C22.2841 8.19857 21.5962 8.47816 20.7795 8.47816ZM19.5545 6.82273C19.8856 7.15381 20.2939 7.31936 20.7795 7.31936C21.2651 7.31936 21.6734 7.15381 22.0045 6.82273C22.3356 6.49164 22.5012 6.07594 22.5012 5.57564C22.5012 5.07533 22.3356 4.65963 22.0045 4.32854C21.6734 3.99746 21.2651 3.83192 20.7795 3.83192C20.2939 3.83192 19.8856 3.99746 19.5545 4.32854C19.2234 4.65963 19.0579 5.07533 19.0579 5.57564C19.0579 6.07594 19.2234 6.49164 19.5545 6.82273Z" fill="black"/>
<path d="M31.0225 2.81658H32.2806L30.5479 8.33469H29.3781L28.2303 4.61549L27.0715 8.33469H25.9017L24.169 2.81658H25.4271L26.4977 6.62408L27.6565 2.81658H28.7932L29.9409 6.62408L31.0225 2.81658Z" fill="black"/>
<path d="M33.9912 6.0833C34.0795 6.50268 34.2819 6.82641 34.5982 7.05449C34.9146 7.27521 35.3009 7.38557 35.757 7.38557C36.3898 7.38557 36.8643 7.15749 37.1807 6.70133L38.1629 7.27521C37.6185 8.07718 36.8128 8.47816 35.746 8.47816C34.8484 8.47816 34.1237 8.20593 33.5719 7.66148C33.0201 7.10967 32.7441 6.41439 32.7441 5.57564C32.7441 4.7516 33.0164 4.06368 33.5608 3.51187C34.1053 2.9527 34.8042 2.67311 35.6577 2.67311C36.467 2.67311 37.1292 2.95638 37.6442 3.5229C38.1666 4.08943 38.4278 4.77735 38.4278 5.58667C38.4278 5.71175 38.4131 5.87729 38.3836 6.0833H33.9912ZM33.9802 5.11212H37.2248C37.1439 4.66331 36.9563 4.32487 36.662 4.09678C36.3751 3.8687 36.0366 3.75466 35.6467 3.75466C35.2052 3.75466 34.8373 3.87606 34.543 4.11886C34.2487 4.36165 34.0611 4.69274 33.9802 5.11212Z" fill="black"/>
<path d="M40.7788 3.74363C41.0805 3.05938 41.647 2.71726 42.4784 2.71726V4.00849C42.0223 3.97906 41.625 4.08943 41.2865 4.33958C40.9481 4.58238 40.7788 4.98704 40.7788 5.55356V8.33469H39.5869V2.81658H40.7788V3.74363Z" fill="black"/>
<path d="M44.346 4.33958C44.346 4.52352 44.4453 4.67067 44.6439 4.78103C44.8499 4.88403 45.0964 4.976 45.3834 5.05693C45.6777 5.13051 45.972 5.2188 46.2663 5.3218C46.5606 5.42481 46.807 5.60139 47.0057 5.85154C47.2117 6.09434 47.3147 6.40335 47.3147 6.77858C47.3147 7.30832 47.1087 7.72402 46.6967 8.02567C46.292 8.32733 45.7807 8.47816 45.1626 8.47816C44.6182 8.47816 44.151 8.36412 43.761 8.13604C43.3711 7.90795 43.0878 7.59158 42.9113 7.18692L43.9376 6.59097C44.1289 7.12071 44.5373 7.38557 45.1626 7.38557C45.788 7.38557 46.1007 7.17956 46.1007 6.76755C46.1007 6.59097 45.9977 6.4475 45.7917 6.33713C45.593 6.22677 45.3466 6.1348 45.0523 6.06123C44.7653 5.9803 44.4747 5.88833 44.1804 5.78532C43.8861 5.68232 43.636 5.5131 43.43 5.27766C43.2313 5.03486 43.132 4.72953 43.132 4.36165C43.132 3.85399 43.3233 3.44565 43.7059 3.13663C44.0958 2.82762 44.5777 2.67311 45.1516 2.67311C45.6078 2.67311 46.0124 2.77612 46.3656 2.98213C46.7261 3.18078 47.002 3.46036 47.1933 3.82088L46.189 4.38373C45.9977 3.96435 45.6519 3.75466 45.1516 3.75466C44.9235 3.75466 44.7322 3.80616 44.5777 3.90917C44.4232 4.00482 44.346 4.14829 44.346 4.33958Z" fill="black"/>
<path d="M58.9351 4.33958V4.86932C58.9351 5.9288 58.5857 6.79698 57.8867 7.47386C57.1877 8.14339 56.2754 8.47816 55.1497 8.47816C53.9578 8.47816 52.9719 8.09189 52.192 7.31936C51.4195 6.54682 51.0332 5.59771 51.0332 4.47202C51.0332 3.35368 51.4195 2.40824 52.192 1.63571C52.9719 0.855818 53.9357 0.465872 55.0835 0.465872C55.8045 0.465872 56.463 0.631415 57.059 0.962501C57.6549 1.29359 58.1185 1.73871 58.4495 2.29788L57.357 2.92695C57.1509 2.55907 56.8456 2.26477 56.4409 2.04405C56.0363 1.81597 55.5838 1.70193 55.0835 1.70193C54.2742 1.70193 53.6083 1.9668 53.0859 2.49653C52.5636 3.02627 52.3024 3.68844 52.3024 4.48305C52.3024 5.27766 52.5636 5.93615 53.0859 6.45853C53.6157 6.98091 54.3073 7.2421 55.1607 7.2421C55.845 7.2421 56.4005 7.08392 56.8272 6.76755C57.2613 6.44382 57.5372 6.01341 57.6549 5.47631H55.0725V4.33958H58.9351Z" fill="black"/>
<path d="M64.4988 2.81658H65.6908V8.33469H64.4988V7.54008C64.05 8.16547 63.4063 8.47816 62.5675 8.47816C61.8097 8.47816 61.1622 8.19857 60.6251 7.63941C60.088 7.07288 59.8195 6.38496 59.8195 5.57564C59.8195 4.75896 60.088 4.07103 60.6251 3.51187C61.1622 2.9527 61.8097 2.67311 62.5675 2.67311C63.4063 2.67311 64.05 2.98213 64.4988 3.60015V2.81658ZM61.508 6.8448C61.8391 7.17589 62.2548 7.34143 62.7551 7.34143C63.2554 7.34143 63.6711 7.17589 64.0022 6.8448C64.3333 6.50636 64.4988 6.0833 64.4988 5.57564C64.4988 5.06797 64.3333 4.64859 64.0022 4.31751C63.6711 3.97906 63.2554 3.80984 62.7551 3.80984C62.2548 3.80984 61.8391 3.97906 61.508 4.31751C61.1769 4.64859 61.0114 5.06797 61.0114 5.57564C61.0114 6.0833 61.1769 6.50636 61.508 6.8448Z" fill="black"/>
<path d="M68.3161 1.76814C68.1689 1.91529 67.9923 1.98887 67.7863 1.98887C67.5803 1.98887 67.4001 1.91529 67.2456 1.76814C67.0984 1.61364 67.0248 1.43338 67.0248 1.22737C67.0248 1.02136 67.0984 0.844782 67.2456 0.697632C67.3927 0.543125 67.573 0.465872 67.7863 0.465872C67.9997 0.465872 68.18 0.543125 68.3271 0.697632C68.4743 0.844782 68.5478 1.02136 68.5478 1.22737C68.5478 1.43338 68.4706 1.61364 68.3161 1.76814ZM67.1904 8.33469V2.81658H68.3823V8.33469H67.1904Z" fill="black"/>
<path d="M72.7791 2.67311C73.4119 2.67311 73.9232 2.87544 74.3131 3.2801C74.7031 3.68477 74.8981 4.24025 74.8981 4.94657V8.33469H73.7062V5.06797C73.7062 4.65595 73.5958 4.33958 73.3751 4.11886C73.1543 3.89813 72.8527 3.78777 72.4701 3.78777C72.0507 3.78777 71.7123 3.9202 71.4548 4.18507C71.1972 4.44259 71.0685 4.83989 71.0685 5.37698V8.33469H69.8766V2.81658H71.0685V3.5229C71.429 2.95638 71.9992 2.67311 72.7791 2.67311Z" fill="black"/>
<path d="M5.35758 18.2839H1.80592V20.6437H5.23718V21.968H1.80592V25.3872H0.421382V16.9596H5.35758V18.2839Z" fill="#8896A6"/>
<path d="M7.98915 20.3788C8.31823 19.6324 8.93626 19.2591 9.84323 19.2591V20.6677C9.3456 20.6356 8.91218 20.756 8.54296 21.0289C8.17375 21.2938 7.98915 21.7352 7.98915 22.3533V25.3872H6.68888V19.3675H7.98915V20.3788Z" fill="#8896A6"/>
<path d="M13.4835 25.5437C12.6006 25.5437 11.8501 25.2387 11.2321 24.6287C10.6141 24.0187 10.3051 23.2683 10.3051 22.3774C10.3051 21.4864 10.6141 20.736 11.2321 20.126C11.8501 19.516 12.6006 19.211 13.4835 19.211C14.3744 19.211 15.1249 19.516 15.7349 20.126C16.3529 20.736 16.6619 21.4864 16.6619 22.3774C16.6619 23.2683 16.3529 24.0187 15.7349 24.6287C15.1249 25.2387 14.3744 25.5437 13.4835 25.5437ZM12.1471 23.7378C12.5083 24.099 12.9537 24.2796 13.4835 24.2796C14.0132 24.2796 14.4587 24.099 14.8199 23.7378C15.1811 23.3766 15.3616 22.9231 15.3616 22.3774C15.3616 21.8316 15.1811 21.3781 14.8199 21.0169C14.4587 20.6557 14.0132 20.4751 13.4835 20.4751C12.9537 20.4751 12.5083 20.6557 12.1471 21.0169C11.7859 21.3781 11.6053 21.8316 11.6053 22.3774C11.6053 22.9231 11.7859 23.3766 12.1471 23.7378Z" fill="#8896A6"/>
<path d="M24.5316 19.211C25.2138 19.211 25.7637 19.4317 26.181 19.8731C26.5984 20.3146 26.8071 20.9085 26.8071 21.655V25.3872H25.5068V21.7393C25.5068 21.3219 25.4025 21.0008 25.1938 20.7761C24.9851 20.5433 24.7002 20.427 24.339 20.427C23.9377 20.427 23.6166 20.5594 23.3758 20.8243C23.1431 21.0891 23.0267 21.4864 23.0267 22.0162V25.3872H21.7264V21.7393C21.7264 21.3219 21.6261 21.0008 21.4254 20.7761C21.2328 20.5433 20.9559 20.427 20.5947 20.427C20.2014 20.427 19.8803 20.5634 19.6315 20.8363C19.3827 21.1012 19.2583 21.4945 19.2583 22.0162V25.3872H17.958V19.3675H19.2583V20.0899C19.6436 19.5039 20.2175 19.211 20.98 19.211C21.7505 19.211 22.3204 19.528 22.6896 20.1621C23.0909 19.528 23.7049 19.211 24.5316 19.211Z" fill="#8896A6"/>
<path d="M31.4493 25.3872V16.5984H32.7496V25.3872H31.4493Z" fill="#8896A6"/>
<path d="M39.1474 19.3675H40.4476V25.3872H39.1474V24.5204C38.6578 25.2026 37.9555 25.5437 37.0405 25.5437C36.2137 25.5437 35.5074 25.2387 34.9215 24.6287C34.3356 24.0107 34.0426 23.2603 34.0426 22.3774C34.0426 21.4864 34.3356 20.736 34.9215 20.126C35.5074 19.516 36.2137 19.211 37.0405 19.211C37.9555 19.211 38.6578 19.5481 39.1474 20.2223V19.3675ZM35.8847 23.7619C36.2459 24.1231 36.6993 24.3037 37.2451 24.3037C37.7909 24.3037 38.2444 24.1231 38.6056 23.7619C38.9668 23.3927 39.1474 22.9312 39.1474 22.3774C39.1474 21.8235 38.9668 21.366 38.6056 21.0049C38.2444 20.6356 37.7909 20.451 37.2451 20.451C36.6993 20.451 36.2459 20.6356 35.8847 21.0049C35.5235 21.366 35.3429 21.8235 35.3429 22.3774C35.3429 22.9312 35.5235 23.3927 35.8847 23.7619Z" fill="#8896A6"/>
<path d="M43.2162 21.0289C43.2162 21.2296 43.3245 21.3901 43.5412 21.5105C43.766 21.6229 44.0348 21.7232 44.3479 21.8115C44.6689 21.8918 44.99 21.9881 45.311 22.1004C45.6321 22.2128 45.901 22.4054 46.1177 22.6783C46.3424 22.9432 46.4548 23.2803 46.4548 23.6897C46.4548 24.2676 46.23 24.721 45.7806 25.0501C45.3391 25.3792 44.7813 25.5437 44.1071 25.5437C43.5131 25.5437 43.0035 25.4193 42.5781 25.1705C42.1527 24.9217 41.8437 24.5766 41.651 24.1351L42.7707 23.485C42.9794 24.0629 43.4248 24.3518 44.1071 24.3518C44.7893 24.3518 45.1304 24.1271 45.1304 23.6776C45.1304 23.485 45.0181 23.3285 44.7933 23.2081C44.5766 23.0877 44.3077 22.9874 43.9867 22.9071C43.6737 22.8188 43.3566 22.7185 43.0356 22.6061C42.7145 22.4937 42.4416 22.3091 42.2169 22.0523C42.0002 21.7874 41.8918 21.4543 41.8918 21.053C41.8918 20.4992 42.1005 20.0537 42.5179 19.7166C42.9433 19.3795 43.469 19.211 44.095 19.211C44.5927 19.211 45.0341 19.3233 45.4194 19.5481C45.8127 19.7648 46.1137 20.0698 46.3223 20.4631L45.2268 21.0771C45.0181 20.6196 44.6408 20.3908 44.095 20.3908C43.8462 20.3908 43.6375 20.447 43.469 20.5594C43.3004 20.6637 43.2162 20.8202 43.2162 21.0289Z" fill="#8896A6"/>
<path d="M50.8421 20.6196H49.3491V23.5091C49.3491 23.7579 49.4053 23.9385 49.5177 24.0508C49.6301 24.1552 49.7946 24.2154 50.0113 24.2314C50.2361 24.2395 50.513 24.2355 50.8421 24.2194V25.3872C49.8468 25.5076 49.1324 25.4233 48.699 25.1344C48.2656 24.8374 48.0489 24.2957 48.0489 23.5091V20.6196H46.9413V19.3675H48.0489V18.0672L49.3491 17.682V19.3675H50.8421V20.6196Z" fill="#8896A6"/>
<path d="M54.7529 16.9596H60.1105V18.1635L57.1488 25.3872H55.692L58.6056 18.2839H54.7529V16.9596Z" fill="#8896A6"/>
<path d="M5.10475 42.0419H6.40501V50.4695H5.10475V49.6027C4.61514 50.2849 3.91284 50.626 2.99784 50.626C2.17112 50.626 1.46481 50.321 0.878883 49.711C0.292961 49.093 0 48.3425 0 47.4596C0 46.5687 0.292961 45.8183 0.878883 45.2083C1.46481 44.5983 2.17112 44.2933 2.99784 44.2933C3.91284 44.2933 4.61514 44.6304 5.10475 45.3046V42.0419ZM1.84204 48.8442C2.20323 49.2054 2.65672 49.386 3.20251 49.386C3.7483 49.386 4.20179 49.2054 4.56297 48.8442C4.92415 48.475 5.10475 48.0135 5.10475 47.4596C5.10475 46.9058 4.92415 46.4483 4.56297 46.0871C4.20179 45.7179 3.7483 45.5333 3.20251 45.5333C2.65672 45.5333 2.20323 45.7179 1.84204 46.0871C1.48086 46.4483 1.30027 46.9058 1.30027 47.4596C1.30027 48.0135 1.48086 48.475 1.84204 48.8442Z" fill="#8896A6"/>
<path d="M12.8086 44.4498H14.1089V50.4695H12.8086V49.6027C12.319 50.2849 11.6167 50.626 10.7017 50.626C9.87499 50.626 9.16867 50.321 8.58275 49.711C7.99683 49.093 7.70387 48.3425 7.70387 47.4596C7.70387 46.5687 7.99683 45.8183 8.58275 45.2083C9.16867 44.5983 9.87499 44.2933 10.7017 44.2933C11.6167 44.2933 12.319 44.6304 12.8086 45.3046V44.4498ZM9.54591 48.8442C9.9071 49.2054 10.3606 49.386 10.9064 49.386C11.4522 49.386 11.9057 49.2054 12.2668 48.8442C12.628 48.475 12.8086 48.0135 12.8086 47.4596C12.8086 46.9058 12.628 46.4483 12.2668 46.0871C11.9057 45.7179 11.4522 45.5333 10.9064 45.5333C10.3606 45.5333 9.9071 45.7179 9.54591 46.0871C9.18473 46.4483 9.00413 46.9058 9.00413 47.4596C9.00413 48.0135 9.18473 48.475 9.54591 48.8442Z" fill="#8896A6"/>
<path d="M19.8022 44.4498H21.1867L18.8751 50.6622C18.2972 52.2193 17.318 52.9577 15.9375 52.8774V51.6614C16.3468 51.6855 16.6759 51.5972 16.9247 51.3966C17.1735 51.2039 17.3782 50.8989 17.5387 50.4816L17.5989 50.3612L15.0466 44.4498H16.4672L18.2611 48.8201L19.8022 44.4498Z" fill="#8896A6"/>
<path d="M22.9235 46.1112C22.9235 46.3119 23.0318 46.4724 23.2486 46.5928C23.4733 46.7052 23.7422 46.8055 24.0552 46.8938C24.3763 46.9741 24.6973 47.0704 25.0184 47.1827C25.3394 47.2951 25.6083 47.4877 25.825 47.7606C26.0497 48.0255 26.1621 48.3626 26.1621 48.772C26.1621 49.3498 25.9374 49.8033 25.4879 50.1324C25.0465 50.4615 24.4886 50.626 23.8144 50.626C23.2205 50.626 22.7108 50.5016 22.2854 50.2528C21.86 50.004 21.551 49.6589 21.3584 49.2174L22.478 48.5673C22.6867 49.1452 23.1322 49.4341 23.8144 49.4341C24.4966 49.4341 24.8378 49.2094 24.8378 48.7599C24.8378 48.5673 24.7254 48.4108 24.5007 48.2904C24.284 48.17 24.0151 48.0696 23.694 47.9894C23.381 47.9011 23.0639 47.8008 22.7429 47.6884C22.4218 47.576 22.1489 47.3914 21.9242 47.1346C21.7075 46.8697 21.5991 46.5366 21.5991 46.1353C21.5991 45.5815 21.8078 45.136 22.2252 44.7989C22.6506 44.4618 23.1763 44.2933 23.8024 44.2933C24.3 44.2933 24.7415 44.4056 25.1267 44.6304C25.52 44.8471 25.821 45.1521 26.0297 45.5454L24.9341 46.1594C24.7254 45.7019 24.3482 45.4731 23.8024 45.4731C23.5536 45.4731 23.3449 45.5293 23.1763 45.6417C23.0078 45.746 22.9235 45.9025 22.9235 46.1112Z" fill="#8896A6"/>
<path d="M119.537 14.3527V13.2692L122.474 10.2714C123.189 9.55701 123.546 8.93899 123.546 8.41727C123.546 8.00793 123.421 7.69089 123.172 7.46615C122.932 7.23339 122.623 7.11701 122.245 7.11701C121.539 7.11701 121.017 7.46615 120.68 8.16445L119.512 7.47819C119.777 6.91635 120.151 6.49095 120.632 6.20201C121.114 5.91306 121.647 5.76858 122.233 5.76858C122.972 5.76858 123.606 6.00135 124.136 6.46688C124.665 6.9324 124.93 7.56648 124.93 8.36912C124.93 9.22793 124.453 10.1429 123.498 11.1141L121.595 13.0164H125.087V14.3527H119.537Z" fill="#20A2A2"/>
<path d="M127.79 5.9251H128.994V14.3527H127.609V7.40596L125.912 7.88754L125.575 6.70767L127.79 5.9251Z" fill="#20A2A2"/>
<path d="M132.077 14.2324C131.9 14.4089 131.688 14.4972 131.439 14.4972C131.19 14.4972 130.977 14.4089 130.801 14.2324C130.624 14.0558 130.536 13.8431 130.536 13.5943C130.536 13.3454 130.62 13.1327 130.789 12.9562C130.965 12.7796 131.182 12.6913 131.439 12.6913C131.688 12.6913 131.9 12.7796 132.077 12.9562C132.253 13.1327 132.342 13.3454 132.342 13.5943C132.342 13.8431 132.253 14.0558 132.077 14.2324Z" fill="#20A2A2"/>
<path d="M139.745 11.5475V12.8358H138.782V14.3527H137.385V12.8358H133.243V11.5475L136.145 5.9251H137.65L134.748 11.5475H137.385V9.35636H138.782V11.5475H139.745Z" fill="#20A2A2"/>
<path d="M143.324 9.06741C142.954 9.43662 142.489 9.62123 141.927 9.62123C141.365 9.62123 140.896 9.43662 140.518 9.06741C140.141 8.69017 139.953 8.23267 139.953 7.6949C139.953 7.15714 140.141 6.70365 140.518 6.33444C140.896 5.9572 141.365 5.76858 141.927 5.76858C142.489 5.76858 142.954 5.95319 143.324 6.3224C143.701 6.69161 143.89 7.14911 143.89 7.6949C143.89 8.23267 143.701 8.69017 143.324 9.06741ZM141.915 8.56175C142.172 8.56175 142.381 8.47747 142.541 8.30892C142.702 8.14037 142.782 7.93569 142.782 7.6949C142.782 7.44609 142.702 7.2374 142.541 7.06885C142.381 6.9003 142.172 6.81602 141.915 6.81602C141.666 6.81602 141.462 6.9003 141.301 7.06885C141.141 7.2374 141.06 7.44609 141.06 7.6949C141.06 7.93569 141.141 8.14037 141.301 8.30892C141.462 8.47747 141.666 8.56175 141.915 8.56175ZM140.663 13.1127L146.213 6.93642L146.863 7.30964L141.313 13.4979L140.663 13.1127ZM145.78 14.4972C145.218 14.4972 144.748 14.3126 144.371 13.9434C143.994 13.5662 143.805 13.1087 143.805 12.5709C143.805 12.0331 143.994 11.5797 144.371 11.2104C144.748 10.8332 145.218 10.6446 145.78 10.6446C146.334 10.6446 146.799 10.8332 147.176 11.2104C147.554 11.5797 147.742 12.0331 147.742 12.5709C147.742 13.1087 147.554 13.5662 147.176 13.9434C146.799 14.3126 146.334 14.4972 145.78 14.4972ZM145.768 13.4377C146.025 13.4377 146.233 13.3535 146.394 13.1849C146.554 13.0164 146.635 12.8117 146.635 12.5709C146.635 12.3221 146.554 12.1134 146.394 11.9448C146.233 11.7763 146.025 11.692 145.768 11.692C145.519 11.692 145.314 11.7763 145.154 11.9448C144.993 12.1134 144.913 12.3221 144.913 12.5709C144.913 12.8117 144.993 13.0164 145.154 13.1849C145.314 13.3535 145.519 13.4377 145.768 13.4377Z" fill="#20A2A2"/>
<path d="M109.494 8.83231C109.88 8.16355 110.845 8.16355 111.232 8.8323L113.167 12.1845C113.554 12.8534 113.071 13.6895 112.298 13.6895H108.427C107.654 13.6895 107.172 12.8534 107.558 12.1845L109.494 8.83231Z" fill="#20A2A2"/>
</svg>
