<svg width="67" height="65" viewBox="0 0 67 65" fill="none" xmlns="http://www.w3.org/2000/svg">
<path d="M59.9569 33.4027C59.9569 49.0635 47.2613 61.7591 31.6005 61.7591C15.9397 61.7591 3.24413 49.0635 3.24413 33.4027C3.24413 17.7419 15.9397 5.04631 31.6005 5.04631C47.2613 5.04631 59.9569 17.7419 59.9569 33.4027ZM17.4223 33.4027C17.4223 41.2331 23.7701 47.5809 31.6005 47.5809C39.4309 47.5809 45.7787 41.2331 45.7787 33.4027C45.7787 25.5723 39.4309 19.2245 31.6005 19.2245C23.7701 19.2245 17.4223 25.5723 17.4223 33.4027Z" fill="#B4B6C4"/>
<path d="M0 33.4032C-4.63794e-07 38.7084 1.33579 43.9282 3.88419 48.5812C6.43259 53.2342 10.1116 57.1707 14.5818 60.0276C19.0521 62.8845 24.1697 64.5698 29.4628 64.9282C34.7558 65.2865 40.0539 64.3064 44.8685 62.0781C49.683 59.8498 53.859 56.4452 57.0113 52.1781C60.1636 47.911 62.1908 42.9189 62.9059 37.6621C63.621 32.4054 63.0009 27.0532 61.103 22.0991C59.205 17.145 56.0902 12.7486 52.0458 9.31527L40.799 22.5636C42.619 24.1086 44.0207 26.087 44.8747 28.3164C45.7288 30.5457 46.0079 32.9542 45.6861 35.3197C45.3643 37.6853 44.4521 39.9317 43.0335 41.8519C41.615 43.7721 39.7358 45.3042 37.5692 46.3069C35.4027 47.3096 33.0185 47.7507 30.6367 47.5894C28.2548 47.4282 25.9518 46.6698 23.9402 45.3842C21.9286 44.0986 20.2731 42.3272 19.1263 40.2333C17.9795 38.1395 17.3784 35.7906 17.3784 33.4032H0Z" fill="#FFDC60"/>
<path d="M41.4961 0.000152717C47.6558 1.82513 53.1908 5.31779 57.4895 10.092C61.7881 14.8663 64.6829 20.7362 65.8538 27.0529C67.0248 33.3695 66.4263 39.887 64.1246 45.8848C61.8228 51.8826 57.9074 57.1271 52.8112 61.0387L40.0842 44.4571C42.1227 42.8925 43.6889 40.7947 44.6096 38.3956C45.5303 35.9965 45.7697 33.3895 45.3013 30.8628C44.8329 28.3361 43.675 25.9882 41.9555 24.0785C40.2361 22.1688 38.0221 20.7717 35.5582 20.0417L41.4961 0.000152717Z" fill="#20A2A2"/>
</svg>
