<svg width="25" height="25" viewBox="0 0 25 25" fill="none" xmlns="http://www.w3.org/2000/svg">
<path d="M23.75 22.5H22.5V3.75C22.5 3.41848 22.3683 3.10054 22.1339 2.86612C21.8995 2.6317 21.5815 2.5 21.25 2.5C20.9185 2.5 20.6005 2.6317 20.3661 2.86612C20.1317 3.10054 20 3.41848 20 3.75V22.5H17.5V8.75C17.5 8.41848 17.3683 8.10054 17.1339 7.86612C16.8995 7.6317 16.5815 7.5 16.25 7.5C15.9185 7.5 15.6005 7.6317 15.3661 7.86612C15.1317 8.10054 15 8.41848 15 8.75V22.5H12.5V13.75C12.5 13.4185 12.3683 13.1005 12.1339 12.8661C11.8995 12.6317 11.5815 12.5 11.25 12.5C10.9185 12.5 10.6005 12.6317 10.3661 12.8661C10.1317 13.1005 10 13.4185 10 13.75V22.5H7.5V18.75C7.5 18.4185 7.3683 18.1005 7.13388 17.8661C6.89946 17.6317 6.58152 17.5 6.25 17.5C5.91848 17.5 5.60054 17.6317 5.36612 17.8661C5.1317 18.1005 5 18.4185 5 18.75V22.5H2.5V1.25C2.5 0.918479 2.3683 0.600537 2.13388 0.366116C1.89946 0.131696 1.58152 0 1.25 0C0.918479 0 0.600537 0.131696 0.366116 0.366116C0.131696 0.600537 0 0.918479 0 1.25V23.75C0 24.0815 0.131696 24.3995 0.366116 24.6339C0.600537 24.8683 0.918479 25 1.25 25H23.75C24.0815 25 24.3995 24.8683 24.6339 24.6339C24.8683 24.3995 25 24.0815 25 23.75C25 23.4185 24.8683 23.1005 24.6339 22.8661C24.3995 22.6317 24.0815 22.5 23.75 22.5Z" fill="#20A2A2"/>
</svg>
