<svg width="19" height="19" viewBox="0 0 19 19" fill="none" xmlns="http://www.w3.org/2000/svg">
<path d="M17.9451 13.7176V16.2704C17.9461 16.5074 17.8976 16.742 17.8026 16.9592C17.7077 17.1763 17.5684 17.3712 17.3938 17.5314C17.2191 17.6917 17.013 17.8136 16.7885 17.8896C16.564 17.9655 16.3261 17.9937 16.09 17.9723C13.4715 17.6878 10.9562 16.793 8.74626 15.3599C6.6902 14.0534 4.94701 12.3102 3.6405 10.2541C2.20236 8.03417 1.30738 5.50664 1.02806 2.87633C1.00679 2.64101 1.03476 2.40384 1.11018 2.17992C1.18559 1.956 1.30681 1.75024 1.4661 1.57574C1.6254 1.40123 1.81928 1.26181 2.03542 1.16634C2.25155 1.07087 2.48519 1.02146 2.72147 1.02123H5.27435C5.68732 1.01717 6.08769 1.16341 6.40081 1.4327C6.71394 1.70199 6.91847 2.07595 6.97627 2.48488C7.08402 3.30186 7.28385 4.10403 7.57194 4.87608C7.68643 5.18066 7.71121 5.51168 7.64334 5.8299C7.57547 6.14813 7.4178 6.44024 7.18901 6.67161L6.10829 7.75232C7.31968 9.88274 9.08363 11.6467 11.214 12.8581L12.2948 11.7774C12.5261 11.5486 12.8182 11.3909 13.1365 11.323C13.4547 11.2552 13.7857 11.2799 14.0903 11.3944C14.8623 11.6825 15.6645 11.8824 16.4815 11.9901C16.8949 12.0484 17.2724 12.2566 17.5422 12.5751C17.8121 12.8936 17.9555 13.3002 17.9451 13.7176Z" stroke="#5D6180" stroke-width="2" stroke-linecap="round" stroke-linejoin="round"/>
</svg>
