<svg width="103" height="29" viewBox="0 0 103 29" fill="none" xmlns="http://www.w3.org/2000/svg">
<path d="M99.1197 4.23272L91.3594 11.2861L84.3046 4.23272L78.3081 10.2281L72.3115 4.23271L66.3149 10.2281L60.3184 4.23271L54.3218 10.2281L48.3252 4.23271L42.3286 10.2281L36.3321 4.23271L30.3355 10.2281L24.3389 4.23271L18.3424 10.2281" stroke="#E6EFFF" stroke-width="2" stroke-linecap="round" stroke-linejoin="round"/>
<path d="M15.1114 9.87459C15.1114 8.09042 16.5581 6.64371 18.3432 6.64371C20.1282 6.64371 21.5749 8.09042 21.5749 9.87459C21.5749 11.6588 20.1282 13.1055 18.3432 13.1055C16.5581 13.1055 15.1114 11.6588 15.1114 9.87459Z" fill="#002F86" stroke="white" stroke-width="2"/>
<path d="M95.5354 4.23156C95.5354 2.44738 96.9821 1.00067 98.7671 1.00067C100.552 1.00067 101.999 2.44738 101.999 4.23156C101.999 6.01574 100.552 7.46245 98.7671 7.46245C96.9821 7.46245 95.5354 6.01574 95.5354 4.23156Z" fill="#002F86" stroke="white" stroke-width="2"/>
<path d="M85.0101 18.3393L77.2499 25.3927L70.1951 18.3393L64.1985 24.3347L58.202 18.3393L52.2054 24.3347L46.2088 18.3393L40.2122 24.3347L34.2157 18.3393L28.2191 24.3347L22.2225 18.3393L16.226 24.3347L10.2294 18.3393L4.23283 24.3347" stroke="#E6EFFF" stroke-width="2" stroke-linecap="round" stroke-linejoin="round"/>
<path d="M1.0009 23.9812C1.0009 22.197 2.44761 20.7503 4.23265 20.7503C6.01769 20.7503 7.46441 22.197 7.46441 23.9812C7.46441 25.7654 6.01769 27.2121 4.23265 27.2121C2.44761 27.2121 1.0009 25.7654 1.0009 23.9812Z" fill="#002F86" stroke="white" stroke-width="2"/>
<path d="M81.4249 18.3382C81.4249 16.554 82.8716 15.1073 84.6566 15.1073C86.4417 15.1073 87.8884 16.554 87.8884 18.3382C87.8884 20.1223 86.4417 21.5691 84.6566 21.5691C82.8716 21.5691 81.4249 20.1223 81.4249 18.3382Z" fill="#002F86" stroke="white" stroke-width="2"/>
</svg>
