<svg width="23" height="26" viewBox="0 0 23 26" fill="none" xmlns="http://www.w3.org/2000/svg">
<path d="M20.0374 5.00647C20.0195 4.87517 19.9051 4.80233 19.8102 4.7944C19.716 4.78647 17.8704 4.75835 17.8704 4.75835C17.8704 4.75835 16.327 3.25509 16.1745 3.10217C16.0221 2.94925 15.7243 2.99541 15.6085 3.03004C15.6071 3.03076 15.3187 3.1202 14.8332 3.27096C14.7519 3.00696 14.6325 2.68236 14.462 2.35632C13.9126 1.30462 13.1078 0.748475 12.1354 0.747036C12.1339 0.747036 12.1332 0.747036 12.1318 0.747036C12.0642 0.747036 11.9973 0.753528 11.9297 0.759295C11.9009 0.724672 11.8721 0.690772 11.8419 0.657588C11.4183 0.203153 10.8753 -0.0182945 10.2244 0.00118132C8.96866 0.0372477 7.71796 0.946842 6.70386 2.56262C5.99039 3.69943 5.44736 5.12768 5.29346 6.23346C3.85142 6.68139 2.84307 6.99443 2.82078 7.00167C2.09293 7.23103 2.06991 7.25339 1.97498 7.94157C1.90449 8.46161 0 23.2316 0 23.2316L15.9602 26L22.8776 24.2753C22.8776 24.2753 20.0554 5.13777 20.0374 5.00647ZM14.0341 3.5191C13.6666 3.63307 13.2487 3.76291 12.7956 3.90357C12.7863 3.26591 12.7107 2.37868 12.4144 1.6119C13.3674 1.79296 13.8363 2.87423 14.0341 3.5191ZM11.9606 4.16324C11.1242 4.4229 10.2115 4.70639 9.29591 4.99061C9.55338 4.00166 10.0417 3.01705 10.6416 2.37146C10.8645 2.13126 11.1767 1.86365 11.5463 1.71073C11.8937 2.43782 11.9692 3.46716 11.9606 4.16324ZM10.2496 0.839362C10.5445 0.832871 10.7926 0.897793 11.0048 1.03773C10.6653 1.21446 10.3373 1.46836 10.0295 1.79945C9.23188 2.65783 8.62055 3.99012 8.37673 5.27553C7.61651 5.51139 6.87284 5.74297 6.18814 5.95504C6.62042 3.9317 8.31127 0.895626 10.2496 0.839362Z" fill="#95BF47"/>
<path d="M19.8109 4.79496C19.7167 4.78703 17.8712 4.75891 17.8712 4.75891C17.8712 4.75891 16.3278 3.25565 16.1753 3.10273C16.1185 3.04574 16.0415 3.01617 15.9609 3.00391L15.9617 25.9991L22.8784 24.2752C22.8784 24.2752 20.0562 5.13833 20.0382 5.00703C20.0202 4.87573 19.9051 4.80289 19.8109 4.79496Z" fill="#5E8E3E"/>
<path d="M12.1267 8.36193L11.3233 11.3763C11.3233 11.3763 10.4272 10.9673 9.3649 11.0344C7.80704 11.1333 7.79049 12.1186 7.80635 12.366C7.89121 13.7142 11.4276 14.0085 11.6261 17.1664C11.7822 19.6507 10.3121 21.3501 8.194 21.4843C5.65155 21.6452 4.25195 20.1412 4.25195 20.1412L4.79066 17.843C4.79066 17.843 6.19958 18.9092 7.32732 18.8378C8.06382 18.7909 8.32703 18.19 8.30042 17.7651C8.18968 16.0065 5.30991 16.1104 5.12797 13.2208C4.97476 10.7892 6.56714 8.32514 10.0805 8.10297C11.4341 8.0157 12.1267 8.36193 12.1267 8.36193Z" fill="white"/>
</svg>
