<svg width="20" height="19" viewBox="0 0 20 19" fill="none" xmlns="http://www.w3.org/2000/svg">
<path d="M19.2534 6.69048L13.2888 5.82363L10.6225 0.418163C10.5497 0.270165 10.4299 0.150356 10.2819 0.0775318C9.9107 -0.105705 9.45965 0.0469924 9.27407 0.418163L6.60775 5.82363L0.64317 6.69048C0.478727 6.71398 0.328379 6.7915 0.213269 6.90896C0.0741075 7.05199 -0.00257684 7.24442 6.61199e-05 7.44397C0.00270908 7.64351 0.0844631 7.83384 0.227364 7.97314L4.54281 12.1805L3.52327 18.1216C3.49936 18.2598 3.51465 18.402 3.56741 18.5319C3.62018 18.6619 3.70829 18.7744 3.82178 18.8568C3.93526 18.9393 4.06956 18.9882 4.20946 18.9982C4.34936 19.0082 4.48926 18.9788 4.61329 18.9133L9.94829 16.1084L15.2833 18.9133C15.4289 18.9908 15.5981 19.0166 15.7602 18.9885C16.1689 18.918 16.4438 18.5304 16.3733 18.1216L15.3538 12.1805L19.6692 7.97314C19.7867 7.85803 19.8642 7.70768 19.8877 7.54324C19.9511 7.13213 19.6645 6.75156 19.2534 6.69048Z" fill="#FFD43D"/>
</svg>
