<svg width="556" height="588" viewBox="0 0 556 588" fill="none" xmlns="http://www.w3.org/2000/svg">
<path d="M136 144.5C136 141.186 138.686 138.5 142 138.5H550C553.314 138.5 556 141.186 556 144.5V398.5C556 401.814 553.314 404.5 550 404.5H142C138.686 404.5 136 401.814 136 398.5V144.5Z" fill="white"/>
<path d="M136 187.5C136 184.186 138.686 181.5 142 181.5H550C553.314 181.5 556 184.186 556 187.5V379.5C556 382.814 553.314 385.5 550 385.5H142C138.686 385.5 136 382.814 136 379.5V187.5Z" fill="#FFFAEC"/>
<path d="M384 207.5C384 204.186 386.686 201.5 390 201.5H518C521.314 201.5 524 204.186 524 207.5V287.5C524 290.814 521.314 293.5 518 293.5H390C386.686 293.5 384 290.814 384 287.5V207.5Z" fill="white"/>
<path d="M455.515 214.817C452.52 214.18 449.4 214.508 446.602 215.754C443.805 216.999 441.474 219.098 439.943 221.75C438.412 224.402 437.759 227.47 438.079 230.516C438.4 233.561 439.675 236.427 441.724 238.702C443.773 240.978 446.49 242.546 449.485 243.183C452.48 243.82 455.6 243.492 458.398 242.246C461.195 241.001 463.526 238.902 465.057 236.25C466.588 233.598 467.241 230.53 466.921 227.484L452.5 229L455.515 214.817Z" fill="#20A2A2"/>
<path d="M457.971 211.894C461.161 212.627 464.037 214.351 466.187 216.819C468.337 219.287 469.651 222.372 469.94 225.633L454.5 227L457.971 211.894Z" fill="#FFDC60"/>
<path d="M409.832 257.756C410.458 257.756 411.013 257.887 411.498 258.148C411.993 258.409 412.376 258.778 412.646 259.254C412.926 259.721 413.066 260.262 413.066 260.878H411.694C411.694 260.299 411.526 259.842 411.19 259.506C410.854 259.17 410.402 259.002 409.832 259.002C409.496 259.002 409.184 259.086 408.894 259.254C408.614 259.422 408.39 259.651 408.222 259.94C408.054 260.22 407.97 260.528 407.97 260.864V262.376C408.549 261.76 409.272 261.452 410.14 261.452C410.7 261.452 411.214 261.583 411.68 261.844C412.156 262.105 412.53 262.465 412.8 262.922C413.08 263.37 413.22 263.865 413.22 264.406C413.22 265.041 413.08 265.605 412.8 266.1C412.52 266.585 412.128 266.963 411.624 267.234C411.12 267.505 410.551 267.64 409.916 267.64C409.282 267.64 408.712 267.505 408.208 267.234C407.704 266.954 407.308 266.567 407.018 266.072C406.738 265.568 406.598 265.003 406.598 264.378V260.99C406.598 260.411 406.743 259.875 407.032 259.38C407.322 258.876 407.714 258.479 408.208 258.19C408.712 257.901 409.254 257.756 409.832 257.756ZM409.916 262.698C409.366 262.698 408.904 262.875 408.53 263.23C408.157 263.575 407.97 264.014 407.97 264.546C407.97 265.078 408.157 265.521 408.53 265.876C408.904 266.221 409.366 266.394 409.916 266.394C410.467 266.394 410.924 266.226 411.288 265.89C411.661 265.545 411.848 265.097 411.848 264.546C411.848 263.995 411.661 263.552 411.288 263.216C410.924 262.871 410.467 262.698 409.916 262.698Z" fill="#060C3C"/>
<path d="M418.529 257.756C419.201 257.756 419.771 257.891 420.237 258.162C420.704 258.433 421.054 258.783 421.287 259.212C421.521 259.641 421.637 260.094 421.637 260.57C421.637 261.242 421.502 261.793 421.231 262.222C420.961 262.651 420.527 263.095 419.929 263.552L417.255 265.596C417.041 265.745 416.873 265.881 416.751 266.002C416.639 266.114 416.583 266.198 416.583 266.254H421.679V267.5H415.085V267.164C415.085 266.688 415.197 266.235 415.421 265.806C415.655 265.367 415.977 264.994 416.387 264.686L419.173 262.586C419.565 262.269 419.845 261.956 420.013 261.648C420.181 261.34 420.265 260.999 420.265 260.626C420.265 260.346 420.195 260.085 420.055 259.842C419.915 259.59 419.71 259.389 419.439 259.24C419.169 259.081 418.842 259.002 418.459 259.002C418.067 259.002 417.717 259.086 417.409 259.254C417.111 259.422 416.877 259.646 416.709 259.926C416.541 260.206 416.457 260.514 416.457 260.85V261.046C416.457 261.121 416.462 261.177 416.471 261.214H415.099L415.085 261.074V260.962C415.085 260.421 415.207 259.907 415.449 259.422C415.692 258.927 416.07 258.526 416.583 258.218C417.097 257.91 417.745 257.756 418.529 257.756Z" fill="#060C3C"/>
<path d="M431.021 257.896L425.197 267.5H424.217L430.069 257.896H431.021ZM424.931 257.91C425.425 257.91 425.831 258.073 426.149 258.4C426.466 258.717 426.625 259.119 426.625 259.604V261.102C426.625 261.587 426.461 261.993 426.135 262.32C425.817 262.637 425.416 262.796 424.931 262.796H424.833C424.347 262.796 423.941 262.637 423.615 262.32C423.297 261.993 423.139 261.587 423.139 261.102V259.604C423.139 259.119 423.297 258.717 423.615 258.4C423.932 258.073 424.338 257.91 424.833 257.91H424.931ZM424.889 258.68C424.627 258.68 424.417 258.759 424.259 258.918C424.109 259.067 424.035 259.263 424.035 259.506V261.2C424.035 261.443 424.109 261.643 424.259 261.802C424.417 261.951 424.627 262.026 424.889 262.026C425.15 262.026 425.355 261.951 425.505 261.802C425.654 261.643 425.729 261.443 425.729 261.2V259.506C425.729 259.263 425.654 259.067 425.505 258.918C425.355 258.759 425.15 258.68 424.889 258.68ZM430.391 262.628C430.876 262.628 431.277 262.791 431.595 263.118C431.921 263.435 432.085 263.837 432.085 264.322V265.82C432.085 266.305 431.926 266.711 431.609 267.038C431.291 267.355 430.885 267.514 430.391 267.514H430.293C429.798 267.514 429.392 267.355 429.075 267.038C428.757 266.711 428.599 266.305 428.599 265.82V264.322C428.599 263.837 428.757 263.435 429.075 263.118C429.401 262.791 429.807 262.628 430.293 262.628H430.391ZM430.349 263.398C430.087 263.398 429.877 263.477 429.719 263.636C429.569 263.785 429.495 263.981 429.495 264.224V265.918C429.495 266.161 429.569 266.361 429.719 266.52C429.877 266.669 430.087 266.744 430.349 266.744C430.61 266.744 430.815 266.669 430.965 266.52C431.114 266.361 431.189 266.161 431.189 265.918V264.224C431.189 263.981 431.114 263.785 430.965 263.636C430.815 263.477 430.61 263.398 430.349 263.398Z" fill="#060C3C"/>
<path d="M416.879 274.64V281.5H415.899V275.79H415.839L413.469 281.5H412.639L410.279 275.79H410.229V281.5H409.339V274.64H410.879L413.089 280.04H413.129L415.349 274.64H416.879Z" fill="#5D6180"/>
<path d="M420.644 276.29C421.317 276.29 421.817 276.423 422.144 276.69C422.477 276.957 422.644 277.343 422.644 277.85V280.5C422.644 280.62 422.67 280.71 422.724 280.77C422.777 280.823 422.844 280.85 422.924 280.85C423.077 280.85 423.23 280.803 423.384 280.71V281.4C423.157 281.533 422.9 281.6 422.614 281.6C422.327 281.6 422.114 281.52 421.974 281.36C421.834 281.193 421.757 280.967 421.744 280.68C421.33 281.293 420.734 281.6 419.954 281.6C419.394 281.6 418.974 281.48 418.694 281.24C418.42 280.993 418.284 280.607 418.284 280.08C418.284 279.667 418.39 279.343 418.604 279.11C418.817 278.87 419.17 278.697 419.664 278.59C420.157 278.483 420.837 278.43 421.704 278.43V277.96C421.704 277.62 421.604 277.383 421.404 277.25C421.204 277.11 420.914 277.04 420.534 277.04C420.174 277.04 419.894 277.11 419.694 277.25C419.494 277.39 419.394 277.587 419.394 277.84V277.96H418.474C418.46 277.867 418.454 277.757 418.454 277.63C418.454 277.397 418.547 277.177 418.734 276.97C418.92 276.763 419.174 276.6 419.494 276.48C419.814 276.353 420.167 276.29 420.554 276.29H420.644ZM421.704 279.16C421.004 279.16 420.474 279.197 420.114 279.27C419.76 279.337 419.524 279.44 419.404 279.58C419.284 279.72 419.224 279.913 419.224 280.16C419.224 280.62 419.574 280.85 420.274 280.85C420.52 280.85 420.754 280.79 420.974 280.67C421.194 280.543 421.37 280.367 421.504 280.14C421.637 279.913 421.704 279.653 421.704 279.36V279.16Z" fill="#5D6180"/>
<path d="M427.003 276.29C427.563 276.29 428.003 276.44 428.323 276.74C428.643 277.04 428.803 277.48 428.803 278.06V281.5H427.863V278.23C427.863 277.437 427.503 277.04 426.783 277.04C426.543 277.04 426.32 277.103 426.113 277.23C425.907 277.357 425.74 277.53 425.613 277.75C425.487 277.963 425.423 278.2 425.423 278.46V281.5H424.483V276.39H425.163L425.293 277.14C425.72 276.573 426.29 276.29 427.003 276.29Z" fill="#5D6180"/>
<path d="M480.804 257.756C481.411 257.756 481.952 257.868 482.428 258.092C482.904 258.316 483.273 258.629 483.534 259.03C483.796 259.422 483.926 259.865 483.926 260.36C483.926 260.892 483.791 261.331 483.52 261.676C483.259 262.012 482.885 262.292 482.4 262.516L482.414 262.558C482.946 262.726 483.366 263.011 483.674 263.412C483.992 263.804 484.15 264.308 484.15 264.924C484.15 265.447 484.006 265.913 483.716 266.324C483.427 266.735 483.026 267.057 482.512 267.29C481.999 267.523 481.43 267.64 480.804 267.64H480.636C479.619 267.64 478.807 267.388 478.2 266.884C477.603 266.371 477.304 265.671 477.304 264.784V264.672H478.676V264.826C478.676 265.339 478.849 265.731 479.194 266.002C479.54 266.263 480.034 266.394 480.678 266.394C481.341 266.394 481.854 266.263 482.218 266.002C482.592 265.731 482.778 265.325 482.778 264.784C482.778 263.757 482.06 263.244 480.622 263.244H479.572V261.984H480.65C481.22 261.984 481.677 261.853 482.022 261.592C482.377 261.331 482.554 260.957 482.554 260.472C482.554 259.996 482.382 259.632 482.036 259.38C481.7 259.128 481.248 259.002 480.678 259.002C480.146 259.002 479.717 259.133 479.39 259.394C479.064 259.655 478.9 260.019 478.9 260.486V260.612H477.528V260.36C477.528 259.847 477.664 259.394 477.934 259.002C478.214 258.601 478.592 258.293 479.068 258.078C479.553 257.863 480.09 257.756 480.678 257.756H480.804Z" fill="#060C3C"/>
<path d="M489.403 257.756C490.318 257.756 491.051 257.999 491.601 258.484C492.161 258.969 492.441 259.618 492.441 260.43C492.441 260.934 492.334 261.345 492.119 261.662C491.914 261.979 491.587 262.273 491.139 262.544V262.6C491.671 262.843 492.073 263.141 492.343 263.496C492.623 263.851 492.763 264.322 492.763 264.91C492.763 265.769 492.469 266.441 491.881 266.926C491.303 267.402 490.477 267.64 489.403 267.64C488.377 267.64 487.56 267.402 486.953 266.926C486.347 266.441 486.043 265.769 486.043 264.91C486.043 264.322 486.183 263.846 486.463 263.482C486.743 263.109 487.145 262.815 487.667 262.6V262.544C487.154 262.227 486.809 261.914 486.631 261.606C486.454 261.298 486.365 260.934 486.365 260.514C486.365 259.618 486.645 258.937 487.205 258.47C487.765 257.994 488.498 257.756 489.403 257.756ZM489.403 259.002C488.899 259.002 488.493 259.142 488.185 259.422C487.887 259.702 487.737 260.057 487.737 260.486C487.737 260.915 487.887 261.27 488.185 261.55C488.493 261.83 488.899 261.97 489.403 261.97C489.907 261.97 490.309 261.83 490.607 261.55C490.915 261.27 491.069 260.915 491.069 260.486C491.069 260.057 490.915 259.702 490.607 259.422C490.309 259.142 489.907 259.002 489.403 259.002ZM489.403 263.216C488.489 263.216 487.877 263.515 487.569 264.112C487.467 264.336 487.415 264.569 487.415 264.812C487.415 265.335 487.602 265.731 487.975 266.002C488.349 266.263 488.825 266.394 489.403 266.394C489.991 266.394 490.467 266.259 490.831 265.988C491.205 265.708 491.391 265.316 491.391 264.812C491.391 264.317 491.209 263.93 490.845 263.65C490.491 263.361 490.01 263.216 489.403 263.216Z" fill="#060C3C"/>
<path d="M502.021 257.896L496.197 267.5H495.217L501.069 257.896H502.021ZM495.931 257.91C496.425 257.91 496.831 258.073 497.149 258.4C497.466 258.717 497.625 259.119 497.625 259.604V261.102C497.625 261.587 497.461 261.993 497.135 262.32C496.817 262.637 496.416 262.796 495.931 262.796H495.833C495.347 262.796 494.941 262.637 494.615 262.32C494.297 261.993 494.139 261.587 494.139 261.102V259.604C494.139 259.119 494.297 258.717 494.615 258.4C494.932 258.073 495.338 257.91 495.833 257.91H495.931ZM495.889 258.68C495.627 258.68 495.417 258.759 495.259 258.918C495.109 259.067 495.035 259.263 495.035 259.506V261.2C495.035 261.443 495.109 261.643 495.259 261.802C495.417 261.951 495.627 262.026 495.889 262.026C496.15 262.026 496.355 261.951 496.505 261.802C496.654 261.643 496.729 261.443 496.729 261.2V259.506C496.729 259.263 496.654 259.067 496.505 258.918C496.355 258.759 496.15 258.68 495.889 258.68ZM501.391 262.628C501.876 262.628 502.277 262.791 502.595 263.118C502.921 263.435 503.085 263.837 503.085 264.322V265.82C503.085 266.305 502.926 266.711 502.609 267.038C502.291 267.355 501.885 267.514 501.391 267.514H501.293C500.798 267.514 500.392 267.355 500.075 267.038C499.757 266.711 499.599 266.305 499.599 265.82V264.322C499.599 263.837 499.757 263.435 500.075 263.118C500.401 262.791 500.807 262.628 501.293 262.628H501.391ZM501.349 263.398C501.087 263.398 500.877 263.477 500.719 263.636C500.569 263.785 500.495 263.981 500.495 264.224V265.918C500.495 266.161 500.569 266.361 500.719 266.52C500.877 266.669 501.087 266.744 501.349 266.744C501.61 266.744 501.815 266.669 501.965 266.52C502.114 266.361 502.189 266.161 502.189 265.918V264.224C502.189 263.981 502.114 263.785 501.965 263.636C501.815 263.477 501.61 263.398 501.349 263.398Z" fill="#060C3C"/>
<path d="M482.128 274.64L480.118 281.5H479.118L477.718 276.54H477.648L476.198 281.5H475.198L473.238 274.64H474.288L475.738 279.81H475.798L477.258 274.64H478.208L479.658 279.81H479.718L481.178 274.64H482.128Z" fill="#5D6180"/>
<path d="M484.874 276.29C485.587 276.29 486.157 276.51 486.584 276.95C487.011 277.39 487.224 277.993 487.224 278.76V279.13C487.224 279.897 487.014 280.5 486.594 280.94C486.174 281.38 485.601 281.6 484.874 281.6C484.147 281.6 483.574 281.38 483.154 280.94C482.734 280.5 482.524 279.897 482.524 279.13V278.76C482.524 277.993 482.737 277.39 483.164 276.95C483.591 276.51 484.161 276.29 484.874 276.29ZM484.874 277.04C484.427 277.04 484.081 277.193 483.834 277.5C483.587 277.807 483.464 278.257 483.464 278.85V279.04C483.464 279.62 483.584 280.067 483.824 280.38C484.071 280.693 484.421 280.85 484.874 280.85C485.314 280.85 485.657 280.697 485.904 280.39C486.157 280.077 486.284 279.627 486.284 279.04V278.85C486.284 278.27 486.161 277.823 485.914 277.51C485.674 277.197 485.327 277.04 484.874 277.04Z" fill="#5D6180"/>
<path d="M493.966 276.29C494.493 276.29 494.903 276.443 495.196 276.75C495.489 277.057 495.636 277.493 495.636 278.06V281.5H494.696V278.23C494.696 277.437 494.389 277.04 493.776 277.04C493.563 277.04 493.363 277.103 493.176 277.23C492.996 277.357 492.849 277.53 492.736 277.75C492.629 277.963 492.576 278.2 492.576 278.46V281.5H491.636V278.23C491.636 277.437 491.329 277.04 490.716 277.04C490.503 277.04 490.303 277.103 490.116 277.23C489.936 277.357 489.789 277.53 489.676 277.75C489.569 277.963 489.516 278.2 489.516 278.46V281.5H488.576V276.39H489.256L489.386 277.14C489.773 276.573 490.309 276.29 490.996 276.29C491.669 276.29 492.136 276.573 492.396 277.14C492.623 276.82 492.866 276.6 493.126 276.48C493.386 276.353 493.666 276.29 493.966 276.29Z" fill="#5D6180"/>
<path d="M499.298 276.29C499.718 276.29 500.088 276.38 500.408 276.56C500.735 276.733 500.988 276.983 501.168 277.31C501.348 277.637 501.438 278.017 501.438 278.45V279.16H497.868C497.881 279.7 498.008 280.117 498.248 280.41C498.488 280.703 498.845 280.85 499.318 280.85C499.738 280.85 500.048 280.727 500.248 280.48C500.448 280.233 500.548 279.94 500.548 279.6H501.438C501.438 280 501.345 280.35 501.158 280.65C500.978 280.95 500.725 281.183 500.398 281.35C500.078 281.517 499.711 281.6 499.298 281.6H499.258C498.538 281.6 497.968 281.37 497.548 280.91C497.135 280.443 496.928 279.823 496.928 279.05V278.85C496.928 278.343 497.021 277.897 497.208 277.51C497.395 277.123 497.661 276.823 498.008 276.61C498.355 276.397 498.761 276.29 499.228 276.29H499.298ZM499.248 277.04C498.868 277.04 498.558 277.157 498.318 277.39C498.085 277.623 497.941 277.97 497.888 278.43H500.508V278.31C500.508 277.93 500.391 277.623 500.158 277.39C499.931 277.157 499.628 277.04 499.248 277.04Z" fill="#5D6180"/>
<path d="M505.325 276.29C505.885 276.29 506.325 276.44 506.645 276.74C506.965 277.04 507.125 277.48 507.125 278.06V281.5H506.185V278.23C506.185 277.437 505.825 277.04 505.105 277.04C504.865 277.04 504.641 277.103 504.435 277.23C504.228 277.357 504.061 277.53 503.935 277.75C503.808 277.963 503.745 278.2 503.745 278.46V281.5H502.805V276.39H503.485L503.615 277.14C504.041 276.573 504.611 276.29 505.325 276.29Z" fill="#5D6180"/>
<path d="M384 320.5C384 317.186 386.686 314.5 390 314.5H518C521.314 314.5 524 317.186 524 320.5V354.5C524 357.814 521.314 360.5 518 360.5H390C386.686 360.5 384 357.814 384 354.5V320.5Z" fill="white"/>
<path d="M394 330.5C394 328.843 395.343 327.5 397 327.5H511C512.657 327.5 514 328.843 514 330.5C514 332.157 512.657 333.5 511 333.5H397C395.343 333.5 394 332.157 394 330.5Z" fill="#B4B6C4"/>
<path d="M394 344.5C394 342.843 395.343 341.5 397 341.5H511C512.657 341.5 514 342.843 514 344.5C514 346.157 512.657 347.5 511 347.5H397C395.343 347.5 394 346.157 394 344.5Z" fill="#B4B6C4"/>
<path d="M202 342.5C202 340.843 203.343 339.5 205 339.5H361C362.657 339.5 364 340.843 364 342.5C364 344.157 362.657 345.5 361 345.5H205C203.343 345.5 202 344.157 202 342.5Z" fill="#B4B6C4"/>
<path d="M168 342.5C168 340.843 169.343 339.5 171 339.5H189C190.657 339.5 192 340.843 192 342.5C192 344.157 190.657 345.5 189 345.5H171C169.343 345.5 168 344.157 168 342.5Z" fill="#B4B6C4"/>
<path d="M202 356.5C202 354.843 203.343 353.5 205 353.5H361C362.657 353.5 364 354.843 364 356.5C364 358.157 362.657 359.5 361 359.5H205C203.343 359.5 202 358.157 202 356.5Z" fill="#B4B6C4"/>
<path d="M168 356.5C168 354.843 169.343 353.5 171 353.5H189C190.657 353.5 192 354.843 192 356.5C192 358.157 190.657 359.5 189 359.5H171C169.343 359.5 168 358.157 168 356.5Z" fill="#B4B6C4"/>
<path d="M168 207.5C168 204.186 170.686 201.5 174 201.5H358C361.314 201.5 364 204.186 364 207.5V308.5C364 311.814 361.314 314.5 358 314.5H174C170.686 314.5 168 311.814 168 308.5V207.5Z" fill="white"/>
<path d="M205.721 281.089C199.316 281.089 189.059 281.818 184 298.5H347V217.5C340.857 217.5 329.595 237.063 323.073 237.063C317.064 237.063 312.262 245.395 309.799 245.395C307.571 245.395 303.417 238.512 301.746 238.512C300.076 238.512 300.47 256.864 297.128 256.864C294.901 256.864 292.278 245.395 288.658 245.395C285.038 245.395 282.373 259.175 279.33 259.175C271.254 259.175 271.95 275.033 266.659 275.033C262.204 275.033 265.035 250.051 260.022 250.051C253.618 250.051 254.963 233.44 250.786 233.44C245.495 233.44 251.159 259.175 242.525 259.175C235.563 259.175 233.901 268.172 230.156 268.22C226.411 268.267 221.269 259.175 217.927 259.175C212.914 259.175 211.29 281.089 205.721 281.089Z" fill="url(#paint0_linear_520_2309)"/>
<path d="M240 264.5C240 266.709 238.209 268.5 236 268.5C233.791 268.5 232 266.709 232 264.5C232 262.291 233.791 260.5 236 260.5C238.209 260.5 240 262.291 240 264.5Z" fill="#20A2A2"/>
<path d="M236.64 255.967C236.269 256.276 235.731 256.276 235.36 255.967L228.244 250.036C226.807 248.839 227.654 246.5 229.524 246.5H242.476C244.346 246.5 245.193 248.839 243.756 250.036L236.64 255.967Z" fill="#20A2A2"/>
<path d="M201 222.5C201 220.291 202.791 218.5 205 218.5H267C269.209 218.5 271 220.291 271 222.5V248.5C271 250.709 269.209 252.5 267 252.5H205C202.791 252.5 201 250.709 201 248.5V222.5Z" fill="#20A2A2"/>
<path d="M209 244C209 243.172 209.672 242.5 210.5 242.5H235.5C236.328 242.5 237 243.172 237 244C237 244.828 236.328 245.5 235.5 245.5H210.5C209.672 245.5 209 244.828 209 244Z" fill="white"/>
<path d="M214.152 226.756C213.891 227.689 213.433 228.791 212.78 230.06C212.127 231.32 211.534 232.263 211.002 232.888H214.222V230.102C214.539 229.477 214.791 228.837 214.978 228.184H215.594V232.888H216.812V234.134H215.594V236.5H214.222V234.134H209.7V232.874C210.969 230.97 211.963 228.931 212.682 226.756H214.152Z" fill="white"/>
<path d="M221.995 226.756C222.583 226.756 223.12 226.896 223.605 227.176C224.1 227.456 224.492 227.843 224.781 228.338C225.071 228.833 225.215 229.388 225.215 230.004V233.406C225.215 234.013 225.075 234.563 224.795 235.058C224.515 235.543 224.128 235.931 223.633 236.22C223.148 236.5 222.602 236.64 221.995 236.64H221.813C221.197 236.64 220.642 236.5 220.147 236.22C219.662 235.931 219.284 235.539 219.013 235.044C218.743 234.549 218.607 234.003 218.607 233.406V230.004C218.607 229.379 218.747 228.819 219.027 228.324C219.317 227.829 219.704 227.447 220.189 227.176C220.675 226.896 221.216 226.756 221.813 226.756H221.995ZM221.911 228.002C221.37 228.002 220.913 228.184 220.539 228.548C220.166 228.903 219.979 229.351 219.979 229.892V233.504C219.979 234.045 220.166 234.498 220.539 234.862C220.913 235.217 221.37 235.394 221.911 235.394C222.471 235.394 222.933 235.212 223.297 234.848C223.661 234.484 223.843 234.036 223.843 233.504V229.892C223.843 229.36 223.661 228.912 223.297 228.548C222.933 228.184 222.471 228.002 221.911 228.002Z" fill="white"/>
<path d="M234.529 226.896L228.705 236.5H227.725L233.577 226.896H234.529ZM228.439 226.91C228.933 226.91 229.339 227.073 229.657 227.4C229.974 227.717 230.133 228.119 230.133 228.604V230.102C230.133 230.587 229.969 230.993 229.643 231.32C229.325 231.637 228.924 231.796 228.439 231.796H228.341C227.855 231.796 227.449 231.637 227.123 231.32C226.805 230.993 226.647 230.587 226.647 230.102V228.604C226.647 228.119 226.805 227.717 227.123 227.4C227.44 227.073 227.846 226.91 228.341 226.91H228.439ZM228.397 227.68C228.135 227.68 227.925 227.759 227.767 227.918C227.617 228.067 227.543 228.263 227.543 228.506V230.2C227.543 230.443 227.617 230.643 227.767 230.802C227.925 230.951 228.135 231.026 228.397 231.026C228.658 231.026 228.863 230.951 229.013 230.802C229.162 230.643 229.237 230.443 229.237 230.2V228.506C229.237 228.263 229.162 228.067 229.013 227.918C228.863 227.759 228.658 227.68 228.397 227.68ZM233.899 231.628C234.384 231.628 234.785 231.791 235.103 232.118C235.429 232.435 235.593 232.837 235.593 233.322V234.82C235.593 235.305 235.434 235.711 235.117 236.038C234.799 236.355 234.393 236.514 233.899 236.514H233.801C233.306 236.514 232.9 236.355 232.583 236.038C232.265 235.711 232.107 235.305 232.107 234.82V233.322C232.107 232.837 232.265 232.435 232.583 232.118C232.909 231.791 233.315 231.628 233.801 231.628H233.899ZM233.857 232.398C233.595 232.398 233.385 232.477 233.227 232.636C233.077 232.785 233.003 232.981 233.003 233.224V234.918C233.003 235.161 233.077 235.361 233.227 235.52C233.385 235.669 233.595 235.744 233.857 235.744C234.118 235.744 234.323 235.669 234.473 235.52C234.622 235.361 234.697 235.161 234.697 234.918V233.224C234.697 232.981 234.622 232.785 234.473 232.636C234.323 232.477 234.118 232.398 233.857 232.398Z" fill="white"/>
<path d="M263 234.5C263 238.366 259.866 241.5 256 241.5C252.134 241.5 249 238.366 249 234.5C249 230.634 252.134 227.5 256 227.5C259.866 227.5 263 230.634 263 234.5Z" fill="white"/>
<path d="M256.513 232.743C256.249 232.461 255.751 232.461 255.487 232.743L252.867 235.541C252.518 235.913 252.825 236.469 253.38 236.469H258.62C259.175 236.469 259.482 235.913 259.133 235.541L256.513 232.743Z" fill="#20A2A2"/>
<path d="M166 160.5C166 163.261 163.761 165.5 161 165.5C158.239 165.5 156 163.261 156 160.5C156 157.739 158.239 155.5 161 155.5C163.761 155.5 166 157.739 166 160.5Z" fill="#20A2A2"/>
<path d="M188 160.5C188 163.261 185.761 165.5 183 165.5C180.239 165.5 178 163.261 178 160.5C178 157.739 180.239 155.5 183 155.5C185.761 155.5 188 157.739 188 160.5Z" fill="#FFDC60"/>
<path d="M210 160.5C210 163.261 207.761 165.5 205 165.5C202.239 165.5 200 163.261 200 160.5C200 157.739 202.239 155.5 205 155.5C207.761 155.5 210 157.739 210 160.5Z" fill="#20A2A2"/>
<g filter="url(#filter0_d_520_2309)">
<rect x="117" y="46" width="60" height="60" rx="6" fill="white"/>
</g>
<g clip-path="url(#clip0_520_2309)">
<path d="M156.643 63.1426H137.357C135.584 63.1426 134.143 64.5836 134.143 66.3569V85.6426C134.143 87.4147 135.584 88.8569 137.357 88.8569H156.643C158.415 88.8569 159.857 87.4147 159.857 85.6426V66.3569C159.857 64.5836 158.415 63.1426 156.643 63.1426Z" fill="#3B5999"/>
<path d="M151.821 75.9996V72.7853C151.821 71.8982 152.541 71.9817 153.428 71.9817H155.035V67.9639H151.821C149.157 67.9639 146.999 70.1217 146.999 72.7853V75.9996H143.785V80.0174H146.999V88.8567H151.821V80.0174H154.232L155.839 75.9996H151.821Z" fill="white"/>
</g>
<g filter="url(#filter1_d_520_2309)">
<rect x="435" y="14" width="70" height="70" rx="6" fill="white"/>
</g>
<g clip-path="url(#clip1_520_2309)">
<path d="M483.93 42.8006C483.93 42.4842 483.918 42.1765 483.904 41.8731C485.327 40.8625 486.524 39.601 487.5 38.1485V38.1471C486.198 38.7173 484.812 39.0965 483.366 39.2802C484.853 38.3921 485.989 36.9965 486.523 35.315C485.136 36.1419 483.605 36.7252 481.973 37.0519C480.656 35.649 478.779 34.7812 476.732 34.7812C472.759 34.7812 469.561 38.0056 469.561 41.9577C469.561 42.5265 469.609 43.0733 469.727 43.594C463.763 43.3023 458.484 40.444 454.937 36.0879C454.319 37.1627 453.954 38.3921 453.954 39.7148C453.954 42.1998 455.233 44.4019 457.142 45.6779C455.988 45.656 454.858 45.3206 453.9 44.7942V44.8729C453.9 48.3598 456.386 51.256 459.649 51.924C458.552 52.2244 457.202 52.2127 456.41 52.0377C457.339 54.8785 459.978 56.9683 463.114 57.0369C460.672 58.9458 457.572 60.0965 454.216 60.0965C453.629 60.0965 453.064 60.0702 452.5 59.9987C455.679 62.0477 459.445 63.2187 463.507 63.2187C476.711 63.2187 483.93 52.2812 483.93 42.8006Z" fill="#55ACEE"/>
</g>
<g filter="url(#filter2_d_520_2309)">
<rect x="366" y="462" width="100" height="100" rx="6" fill="white"/>
</g>
<g clip-path="url(#clip2_520_2309)">
<path d="M408.327 513.582C404.943 513.582 402.199 516.326 402.199 519.709V535.037C402.199 538.42 404.943 541.164 408.327 541.164C411.71 541.164 414.454 538.42 414.454 535.037V519.709C414.452 516.326 411.708 513.582 408.327 513.582Z" fill="#E91E63"/>
<path d="M386.879 519.709C386.879 523.095 389.625 525.842 393.011 525.842C396.397 525.842 399.143 523.095 399.143 519.709V513.577H393.016C393.014 513.577 393.014 513.577 393.011 513.577C389.625 513.577 386.879 516.324 386.879 519.709Z" fill="#E91E63"/>
<path d="M408.334 482.83C408.331 482.83 408.329 482.83 408.327 482.83C404.941 482.83 402.194 485.577 402.194 488.962C402.194 492.348 404.941 495.095 408.327 495.095H414.454V488.962C414.454 488.96 414.454 488.955 414.454 488.95C414.452 485.569 411.712 482.83 408.334 482.83Z" fill="#36C5F0"/>
<path d="M392.97 510.469H408.326C411.712 510.469 414.459 507.722 414.459 504.336C414.459 500.951 411.712 498.204 408.326 498.204H392.97C389.584 498.204 386.838 500.951 386.838 504.336C386.838 507.722 389.584 510.469 392.97 510.469Z" fill="#36C5F0"/>
<path d="M438.985 498.201C435.604 498.201 432.865 500.94 432.865 504.321V504.333V510.466H438.993C442.378 510.466 445.125 507.719 445.125 504.333C445.125 500.948 442.378 498.201 438.993 498.201C438.99 498.201 438.988 498.201 438.985 498.201Z" fill="#4CAF50"/>
<path d="M417.558 488.963V504.337C417.558 507.72 420.302 510.464 423.685 510.464C427.068 510.464 429.812 507.72 429.812 504.337V488.963C429.812 485.58 427.068 482.836 423.685 482.836C420.302 482.836 417.558 485.58 417.558 488.963Z" fill="#4CAF50"/>
<path d="M429.811 535.032C429.811 531.648 427.066 528.904 423.683 528.904H417.556V535.037C417.558 538.417 420.3 541.159 423.683 541.159C427.066 541.159 429.811 538.415 429.811 535.032Z" fill="#FF9800"/>
<path d="M439.039 513.577H423.683C420.297 513.577 417.551 516.324 417.551 519.709C417.551 523.095 420.297 525.842 423.683 525.842H439.039C442.425 525.842 445.172 523.095 445.172 519.709C445.172 516.324 442.425 513.577 439.039 513.577Z" fill="#FF9800"/>
</g>
<g filter="url(#filter3_d_520_2309)">
<rect x="20" y="426" width="86" height="86" rx="6" fill="white"/>
</g>
<g clip-path="url(#clip3_520_2309)">
<path d="M44.187 450.425C40.8079 453.935 41.4995 457.664 41.4995 468.99C41.4995 478.397 39.8583 487.826 48.4476 490.046C51.1297 490.736 74.8944 490.736 77.5729 490.043C81.1491 489.12 84.0587 486.219 84.4565 481.161C84.512 480.455 84.512 457.538 84.4547 456.818C84.0319 451.43 80.7155 448.325 76.3456 447.697C75.3441 447.551 75.1434 447.508 70.0049 447.499C51.7783 447.508 47.7829 446.697 44.187 450.425Z" fill="url(#paint1_linear_520_2309)"/>
<path d="M62.9964 453.124C56.4909 453.124 50.3132 452.545 47.9536 458.601C46.9789 461.102 47.1205 464.35 47.1205 469.001C47.1205 473.083 46.9897 476.919 47.9536 479.4C50.3078 485.46 56.5357 484.879 62.9928 484.879C69.2224 484.879 75.6456 485.528 78.0339 479.4C79.0103 476.874 78.867 473.674 78.867 469.001C78.867 462.799 79.2092 458.794 76.201 455.788C73.1552 452.742 69.0361 453.124 62.9892 453.124H62.9964ZM61.5738 455.985C75.1439 455.964 76.8711 454.455 75.9179 475.412C75.5793 482.824 69.9355 482.011 62.9982 482.011C50.349 482.011 49.9853 481.649 49.9853 468.994C49.9853 456.193 50.9887 455.992 61.5738 455.981V455.985ZM71.471 458.621C70.4193 458.621 69.5664 459.473 69.5664 460.525C69.5664 461.577 70.4193 462.43 71.471 462.43C72.5227 462.43 73.3755 461.577 73.3755 460.525C73.3755 459.473 72.5227 458.621 71.471 458.621ZM62.9964 460.848C58.4939 460.848 54.8443 464.499 54.8443 469.001C54.8443 473.504 58.4939 477.154 62.9964 477.154C67.4989 477.154 71.1467 473.504 71.1467 469.001C71.1467 464.499 67.4989 460.848 62.9964 460.848ZM62.9964 463.709C69.9929 463.709 70.0018 474.294 62.9964 474.294C56.0017 474.294 55.991 463.709 62.9964 463.709Z" fill="white"/>
</g>
<path d="M69.457 263.576H136.522" stroke="#20A2A2" stroke-width="1.5" stroke-linecap="round" stroke-linejoin="round" stroke-dasharray="4 5"/>
<path d="M101.5 469.131H206.5V442H280V405.5" stroke="#20A2A2" stroke-width="2" stroke-linecap="round" stroke-linejoin="round" stroke-dasharray="4 5"/>
<path d="M419 406L419 462" stroke="#20A2A2" stroke-width="2" stroke-dasharray="4 5"/>
<path d="M435 47H385V145" stroke="#20A2A2" stroke-width="2" stroke-linecap="round" stroke-linejoin="round" stroke-dasharray="4 5"/>
<path d="M180 74H245.51V108.336H350V154" stroke="#20A2A2" stroke-width="2" stroke-linecap="round" stroke-linejoin="round" stroke-dasharray="4 5"/>
<defs>
<filter id="filter0_d_520_2309" x="97" y="32" width="100" height="100" filterUnits="userSpaceOnUse" color-interpolation-filters="sRGB">
<feFlood flood-opacity="0" result="BackgroundImageFix"/>
<feColorMatrix in="SourceAlpha" type="matrix" values="0 0 0 0 0 0 0 0 0 0 0 0 0 0 0 0 0 0 127 0" result="hardAlpha"/>
<feOffset dy="6"/>
<feGaussianBlur stdDeviation="10"/>
<feColorMatrix type="matrix" values="0 0 0 0 0.11 0 0 0 0 0.14137 0 0 0 0 0.4125 0 0 0 0.05 0"/>
<feBlend mode="normal" in2="BackgroundImageFix" result="effect1_dropShadow_520_2309"/>
<feBlend mode="normal" in="SourceGraphic" in2="effect1_dropShadow_520_2309" result="shape"/>
</filter>
<filter id="filter1_d_520_2309" x="415" y="0" width="110" height="110" filterUnits="userSpaceOnUse" color-interpolation-filters="sRGB">
<feFlood flood-opacity="0" result="BackgroundImageFix"/>
<feColorMatrix in="SourceAlpha" type="matrix" values="0 0 0 0 0 0 0 0 0 0 0 0 0 0 0 0 0 0 127 0" result="hardAlpha"/>
<feOffset dy="6"/>
<feGaussianBlur stdDeviation="10"/>
<feColorMatrix type="matrix" values="0 0 0 0 0.11 0 0 0 0 0.14137 0 0 0 0 0.4125 0 0 0 0.05 0"/>
<feBlend mode="normal" in2="BackgroundImageFix" result="effect1_dropShadow_520_2309"/>
<feBlend mode="normal" in="SourceGraphic" in2="effect1_dropShadow_520_2309" result="shape"/>
</filter>
<filter id="filter2_d_520_2309" x="346" y="448" width="140" height="140" filterUnits="userSpaceOnUse" color-interpolation-filters="sRGB">
<feFlood flood-opacity="0" result="BackgroundImageFix"/>
<feColorMatrix in="SourceAlpha" type="matrix" values="0 0 0 0 0 0 0 0 0 0 0 0 0 0 0 0 0 0 127 0" result="hardAlpha"/>
<feOffset dy="6"/>
<feGaussianBlur stdDeviation="10"/>
<feColorMatrix type="matrix" values="0 0 0 0 0.11 0 0 0 0 0.14137 0 0 0 0 0.4125 0 0 0 0.05 0"/>
<feBlend mode="normal" in2="BackgroundImageFix" result="effect1_dropShadow_520_2309"/>
<feBlend mode="normal" in="SourceGraphic" in2="effect1_dropShadow_520_2309" result="shape"/>
</filter>
<filter id="filter3_d_520_2309" x="0" y="412" width="126" height="126" filterUnits="userSpaceOnUse" color-interpolation-filters="sRGB">
<feFlood flood-opacity="0" result="BackgroundImageFix"/>
<feColorMatrix in="SourceAlpha" type="matrix" values="0 0 0 0 0 0 0 0 0 0 0 0 0 0 0 0 0 0 127 0" result="hardAlpha"/>
<feOffset dy="6"/>
<feGaussianBlur stdDeviation="10"/>
<feColorMatrix type="matrix" values="0 0 0 0 0.11 0 0 0 0 0.14137 0 0 0 0 0.4125 0 0 0 0.05 0"/>
<feBlend mode="normal" in2="BackgroundImageFix" result="effect1_dropShadow_520_2309"/>
<feBlend mode="normal" in="SourceGraphic" in2="effect1_dropShadow_520_2309" result="shape"/>
</filter>
<linearGradient id="paint0_linear_520_2309" x1="346" y1="59.9667" x2="346" y2="404.5" gradientUnits="userSpaceOnUse">
<stop stop-color="#20A2A2"/>
<stop offset="1" stop-color="#20A2A2" stop-opacity="0"/>
</linearGradient>
<linearGradient id="paint1_linear_520_2309" x1="44.2694" y1="487.753" x2="84.2334" y2="453.165" gradientUnits="userSpaceOnUse">
<stop stop-color="#FFDD55"/>
<stop offset="0.5" stop-color="#FF543E"/>
<stop offset="1" stop-color="#C837AB"/>
</linearGradient>
<clipPath id="clip0_520_2309">
<rect width="25.7143" height="25.7143" fill="white" transform="translate(134.143 63.1426)"/>
</clipPath>
<clipPath id="clip1_520_2309">
<rect width="35" height="35" fill="white" transform="translate(452.5 31.5)"/>
</clipPath>
<clipPath id="clip2_520_2309">
<rect width="58.3333" height="58.3333" fill="white" transform="translate(386.833 482.833)"/>
</clipPath>
<clipPath id="clip3_520_2309">
<rect width="43" height="43" fill="white" transform="translate(41.5 447.5)"/>
</clipPath>
</defs>
</svg>
