<svg width="42" height="42" viewBox="0 0 42 42" fill="none" xmlns="http://www.w3.org/2000/svg">
<path d="M36.267 14.1942C31.5961 14.1942 27.8096 10.4132 27.8096 5.74916C27.8086 5.22932 27.8581 4.7106 27.9574 4.2003H11.2273C4.15483 4.2003 0 8.40436 0 15.448V30.7892C0 37.8328 4.15483 42 11.2273 42H26.5909C33.6449 42 37.7997 37.8328 37.7997 30.7892V14.0467C37.2944 14.1423 36.7813 14.1916 36.267 14.1942Z" fill="#209FA0"/>
<path d="M29.4166 19.3381L23.4152 27.0825C23.1627 27.4191 22.784 27.6387 22.3661 27.6908C21.9481 27.743 21.5269 27.6232 21.1993 27.3591L15.4379 22.8415L10.249 29.5533C9.87321 30.15 9.14138 30.4181 8.46832 30.2056C7.79527 29.9931 7.35075 29.3537 7.38676 28.6498C7.38365 28.3015 7.50106 27.9628 7.71915 27.691L13.9237 19.6885C14.1732 19.3546 14.5468 19.1351 14.9603 19.0796C15.3738 19.0241 15.7922 19.1372 16.1211 19.3935L21.8825 23.9294L26.9421 17.4205C27.1854 17.0849 27.5545 16.8621 27.9652 16.803C28.3758 16.744 28.7929 16.8537 29.1211 17.107C29.7993 17.6374 29.9303 18.6109 29.4166 19.3013V19.3381Z" fill="#FFDC60"/>
<ellipse cx="36.7497" cy="5.24996" rx="5.24996" ry="5.24996" fill="#FFDC60"/>
</svg>
