<svg width="105" height="48" viewBox="0 0 105 48" fill="none" xmlns="http://www.w3.org/2000/svg">
<path fill-rule="evenodd" clip-rule="evenodd" d="M42.7209 38.6731L34.7693 41.5227C37.5859 41.0384 40.2316 40.0627 42.7209 38.6731ZM61.1722 37.2998C58.014 38.0381 54.9112 38.8775 51.7094 39.2584C55.0648 39.534 58.1547 38.5114 61.1722 37.2998ZM53.339 27.5586C53.3557 26.3104 52.5499 26.4668 51.8106 26.5735C49.3103 26.9328 48.025 28.8594 46.8138 30.7133C45.931 32.0644 45.1835 33.5801 45.1629 35.2866C45.1548 35.9373 45.328 36.4545 46.1702 35.9899C48.4695 34.7211 50.5368 33.1791 52.0283 30.9779C52.7389 29.9292 53.2323 28.7791 53.339 27.5586ZM51.7222 37.781C53.7559 37.882 55.7073 37.3217 57.6554 36.827C66.0727 34.689 73.163 30.2104 79.5895 24.4961C83.8824 20.6787 87.7689 16.4896 91.5153 12.1551C91.8575 11.7599 92.1876 11.3465 92.7025 11.1657C93.2811 10.9628 93.6897 11.0092 93.4174 11.78C93.3509 11.9699 93.0873 12.1474 93.4476 12.2579C94.6903 12.6397 94.3534 13.5449 94.1328 14.3683C93.7194 15.9136 92.6848 17.1317 91.7995 18.3995C89.3198 21.9518 86.7033 25.4137 83.6551 28.5024C80.8251 31.3696 77.6113 33.7948 74.3315 36.1285C72.2437 37.6141 70.0994 39.0962 67.6417 39.7675C66.009 40.2133 64.6902 41.2104 63.0972 41.6639C60.0433 42.5332 56.9922 43.3667 53.8009 43.5437C51.1743 43.6891 48.6931 43.1686 46.4082 41.862C45.655 41.4309 44.9468 41.4008 44.1821 41.7156C42.1211 42.5634 40.0266 43.3475 37.9388 44.0972C34.5422 45.3177 30.9676 45.9937 27.3902 46.5276C21.6843 47.3792 15.9702 47.6476 10.2629 46.5161C6.90841 45.8511 3.6444 44.9775 1.12545 42.4352C0.462215 41.7658 -0.0297074 41.0271 0.00139669 40.0325C0.0143168 39.6038 0.149739 39.2795 0.569405 39.1C1.06563 38.8886 1.10918 39.2402 1.33791 39.5617C2.90604 41.7673 5.40537 42.0562 7.78028 42.5452C14.3251 43.8929 20.8368 43.2758 27.3328 42.14C32.3037 41.2707 37.142 39.9249 41.8172 38.0145C42.1886 37.8628 42.7006 37.8758 42.3915 37.1749C41.3143 34.733 41.488 32.2361 42.3647 29.8061C43.7174 26.0553 45.9215 23.0144 49.9718 21.8528C52.1481 21.2284 53.5994 21.9355 54.8761 23.7894C58.1296 28.512 56.3443 33.5972 52.6347 36.6414C52.3022 36.9136 51.9701 37.1859 51.6384 37.4576C51.6662 37.5657 51.6944 37.6734 51.7222 37.781Z" fill="#F9896B"/>
<path fill-rule="evenodd" clip-rule="evenodd" d="M93.6246 5.19698C96.1718 4.39497 98.5544 3.26805 100.694 1.66499C98.3376 2.84216 95.9814 4.01981 93.6246 5.19698ZM98.8909 15.8974C98.9507 13.1933 99.4709 10.5466 99.8867 7.88658C99.9489 7.48901 100.232 7.05555 99.7327 6.70822C99.2527 6.37475 98.8823 6.71539 98.5574 6.92925C96.7854 8.09326 94.7708 8.67216 92.8405 9.47113C91.6212 9.97635 90.4876 10.716 89.219 11.1968C87.2657 11.9365 85.3655 12.8235 83.4657 13.6971C82.5029 14.1396 81.3746 14.1123 80.5371 14.9558C79.7155 15.783 78.825 15.5337 77.8139 14.1554C77.2975 13.4521 77.086 12.5144 77.9646 11.847C78.6872 11.2982 79.4648 10.7959 80.2792 10.3993C85.6698 7.77511 91.0814 5.19448 96.4749 2.57653C97.6855 1.98902 98.8579 1.31922 100.04 0.673346C102.189 -0.501191 103.099 -0.185908 104.247 1.98902C105.139 3.67739 105.21 5.34374 104.61 7.14215C103.457 10.604 102.401 14.0989 101.918 17.7326C101.821 18.4608 101.827 19.2018 101.759 19.9348C101.68 20.7835 101.282 21.0002 100.553 20.5008C98.9373 19.3946 98.801 19.022 98.8909 15.8974Z" fill="#F9896B"/>
</svg>
