<svg width="34" height="34" viewBox="0 0 34 34" fill="none" xmlns="http://www.w3.org/2000/svg">
<path d="M13.8594 6.04463C13.946 6.22086 14.0032 6.40958 14.0288 6.6036L14.5021 13.6413L14.7371 17.1786C14.7395 17.5424 14.7966 17.9038 14.9064 18.2513C15.1902 18.9253 15.8729 19.3537 16.6156 19.3239L27.9327 18.5836C28.4228 18.5755 28.896 18.7588 29.2483 19.0932C29.5419 19.3718 29.7315 19.7362 29.7912 20.1282L29.8112 20.3663C29.3429 26.8512 24.5801 32.26 18.1087 33.6563C11.6372 35.0525 5.00107 32.103 1.80317 26.4092C0.881241 24.755 0.3054 22.9367 0.109447 21.0612C0.027588 20.506 -0.00845651 19.9452 0.00166465 19.3843C-0.00844195 12.4318 4.9426 6.42105 11.8731 4.97202C12.7073 4.84214 13.525 5.28371 13.8594 6.04463Z" fill="#20A2A2"/>
<path d="M18.4783 0.00139259C26.2299 0.198601 32.7449 5.77273 33.9989 13.2806L33.987 13.336L33.9528 13.4166L33.9575 13.6377C33.9398 13.9307 33.8266 14.2126 33.6317 14.4403C33.4286 14.6775 33.1512 14.8391 32.8457 14.9018L32.6594 14.9273L19.6023 15.7733C19.168 15.8162 18.7355 15.6761 18.4125 15.388C18.1434 15.1479 17.9713 14.8239 17.9227 14.4747L17.0463 1.43658C17.031 1.39249 17.031 1.3447 17.0463 1.30061C17.0583 0.941224 17.2165 0.601516 17.4855 0.357384C17.7546 0.113251 18.1122 -0.0149603 18.4783 0.00139259Z" fill="#FFDC60"/>
</svg>
