<svg width="42" height="42" viewBox="0 0 42 42" fill="none" xmlns="http://www.w3.org/2000/svg">
<path d="M17.1206 7.46674C17.2276 7.68443 17.2982 7.91757 17.3299 8.15723L17.9146 16.851L18.2048 21.2207C18.2078 21.67 18.2783 22.1165 18.4141 22.5457C18.7646 23.3784 19.6079 23.9076 20.5253 23.8707L34.5055 22.9563C35.1109 22.9463 35.6955 23.1727 36.1307 23.5857C36.4934 23.9299 36.7275 24.3801 36.8013 24.8643L36.826 25.1584C36.2475 33.1692 30.364 39.8508 22.3698 41.5756C14.3755 43.3004 6.17787 39.6569 2.22747 32.6232C1.08861 30.5798 0.377263 28.3337 0.135201 26.0168C0.0340797 25.331 -0.0104464 24.6382 0.00205636 23.9453C-0.0104284 15.3568 6.10564 7.93174 14.667 6.14173C15.6974 5.98129 16.7075 6.52677 17.1206 7.46674Z" fill="#209FA0"/>
<path d="M22.8269 0.00172028C32.4025 0.245334 40.4506 7.1311 41.9997 16.4057L41.9849 16.4741L41.9426 16.5736L41.9485 16.8468C41.9266 17.2088 41.7868 17.557 41.546 17.8383C41.2952 18.1313 40.9525 18.3308 40.575 18.4083L40.3449 18.4398L24.2154 19.4849C23.6788 19.5378 23.1447 19.3648 22.7457 19.009C22.4132 18.7124 22.2006 18.312 22.1406 17.8807L21.0579 1.77462C21.0391 1.72016 21.0391 1.66112 21.0579 1.60666C21.0727 1.1627 21.2681 0.743058 21.6005 0.441479C21.9329 0.1399 22.3746 -0.0184806 22.8269 0.00172028Z" fill="#FFDC60"/>
</svg>
