<svg width="32" height="34" viewBox="0 0 32 34" fill="none" xmlns="http://www.w3.org/2000/svg">
<path d="M31.5461 20.8341C31.2191 20.3288 30.7544 19.8236 30.1519 19.5036C29.67 19.2678 29.3602 18.8804 29.0848 18.4256C28.207 16.9772 28.7233 15.074 30.1864 14.215C31.9076 13.255 32.4584 11.116 31.4601 9.44862L30.3069 7.46121C29.3258 5.7938 27.1742 5.20432 25.4702 6.18118C23.9555 6.98962 22.0105 6.45066 21.1327 5.01905C20.8573 4.54746 20.7024 4.04219 20.7368 3.53691C20.7885 2.88006 20.5819 2.25689 20.2721 1.75161C19.6352 0.707383 18.482 0 17.2083 0H14.7814C13.5249 0.0336849 12.3717 0.707383 11.7348 1.75161C11.4078 2.25689 11.2184 2.88006 11.2529 3.53691C11.2873 4.04219 11.1324 4.54746 10.857 5.01905C9.97916 6.45066 8.03418 6.98962 6.53671 6.18118C4.81548 5.20432 2.68116 5.7938 1.68285 7.46121L0.529626 9.44862C-0.451473 11.116 0.0993193 13.255 1.80333 14.215C3.26638 15.074 3.78275 16.9772 2.92213 18.4256C2.62952 18.8804 2.3197 19.2678 1.83776 19.5036C1.25254 19.8236 0.736173 20.3288 0.460777 20.8341C-0.176077 21.8783 -0.141653 23.1921 0.495202 24.2868L1.68285 26.3079C2.3197 27.3858 3.50735 28.0595 4.74663 28.0595C5.33185 28.0595 6.02034 27.8911 6.57113 27.5543C7.00144 27.2679 7.51781 27.1669 8.08581 27.1669C9.78983 27.1669 11.2184 28.5648 11.2529 30.2322C11.2529 32.1691 12.8364 33.6849 14.833 33.6849H17.1739C19.1533 33.6849 20.7368 32.1691 20.7368 30.2322C20.7885 28.5648 22.2171 27.1669 23.9211 27.1669C24.4719 27.1669 24.9883 27.2679 25.4358 27.5543C25.9866 27.8911 26.6579 28.0595 27.2603 28.0595C28.4824 28.0595 29.67 27.3858 30.3069 26.3079L31.5117 24.2868C32.1314 23.1584 32.183 21.8783 31.5461 20.8341Z" fill="white"/>
<path d="M16.0201 21.609C13.3178 21.609 11.1318 19.5037 11.1318 16.8594C11.1318 14.2152 13.3178 12.093 16.0201 12.093C18.7224 12.093 20.8567 14.2152 20.8567 16.8594C20.8567 19.5037 18.7224 21.609 16.0201 21.609Z" fill="#20A2A2"/>
</svg>
